<?xml version="1.0" encoding="UTF-8"?>
<svg version="1.1" xmlns="http://www.w3.org/2000/svg" width="1920" height="1080">
<path d="M0 0 C633.6 0 1267.2 0 1920 0 C1920 356.4 1920 712.8 1920 1080 C1286.4 1080 652.8 1080 0 1080 C0 723.6 0 367.2 0 0 Z " fill="#FEFEFE" transform="translate(0,0)"/>
<path d="M0 0 C1.11882195 -0.00382555 2.23764389 -0.00765109 3.39036953 -0.01159257 C7.12334202 -0.02187607 10.85615937 -0.01793921 14.58914185 -0.01396179 C17.27209987 -0.01831083 19.95504669 -0.02343051 22.63800049 -0.02944946 C29.15966297 -0.04217081 35.68128422 -0.04399337 42.20295702 -0.0416492 C47.50633315 -0.03986302 52.8096968 -0.0416221 58.11307144 -0.04587364 C58.86912506 -0.04646883 59.62517868 -0.04706402 60.40414301 -0.04767724 C61.94028416 -0.04888905 63.47642531 -0.05010319 65.01256646 -0.05131962 C79.40462399 -0.06218527 93.79665806 -0.06003728 108.1887169 -0.05393478 C121.34012443 -0.0487664 134.49145787 -0.0600207 147.64285074 -0.07903299 C161.16379416 -0.0984289 174.68470257 -0.10666433 188.20565999 -0.10290974 C195.78979947 -0.10100037 203.3738759 -0.10345951 210.958004 -0.11762428 C217.41445498 -0.12956141 223.8708041 -0.13091691 230.32725655 -0.11883412 C233.61779125 -0.11296172 236.90810226 -0.11344032 240.19863129 -0.12383652 C243.77435639 -0.1343171 247.34958541 -0.1261921 250.92529297 -0.11352539 C251.95323247 -0.12089968 252.98117197 -0.12827396 254.04026115 -0.13587171 C269.40461593 -0.02181763 285.56770988 6.38325827 296.58963013 17.26069641 C307.3107968 29.43406124 313.91802666 43.23743775 313.85705566 59.51853943 C313.86158678 60.41796198 313.86611789 61.31738453 313.87078631 62.2440623 C313.88338861 65.24070827 313.88181262 68.23717151 313.88015747 71.23384094 C313.88614542 73.38962028 313.89295158 75.54539748 313.9005127 77.70117188 C313.91815519 83.54650457 313.92286741 89.39177867 313.92414427 95.23713541 C313.9255677 98.89369595 313.929841 102.55024169 313.9351387 106.20679855 C313.95363496 118.97672722 313.96181004 131.74661417 313.9602356 144.51655579 C313.95903512 156.39758687 313.98012015 168.27843602 314.01172292 180.15942109 C314.03792752 190.37713506 314.0486011 200.59478978 314.04732478 210.81253707 C314.04681627 216.90732273 314.0524377 223.00194674 314.07368088 229.09669876 C314.09313305 234.83417253 314.09313999 240.57133164 314.07864761 246.30881691 C314.0765669 248.40572256 314.08121603 250.50264826 314.09336853 252.59951973 C314.20080669 272.43427544 310.92473967 290.34264341 296.58963013 305.26069641 C290.49811396 310.4615909 284.0878606 315.32720222 276.58963013 318.26069641 C275.72982544 318.61905579 274.87002075 318.97741516 273.98416138 319.34663391 C263.47648391 323.17996515 252.66172167 323.08776486 241.58963013 323.26069641 C250.02547495 330.50768155 258.48329434 337.72716206 266.98074341 344.90180969 C269.68535302 347.18615827 272.3873514 349.47359149 275.08963013 351.76069641 C276.17295111 352.67737767 277.25628444 353.59404434 278.33963013 354.51069641 C280.50629679 356.34402974 282.67296346 358.17736308 284.83963013 360.01069641 C285.37636353 360.46484924 285.91309692 360.91900208 286.46609497 361.38691711 C287.54457021 362.29948556 288.62302091 363.21208301 289.70144653 364.12471008 C292.48390361 366.47932337 295.26684306 368.83336293 298.05056763 371.18647766 C303.5787628 375.86032252 309.10220422 380.53895784 314.58963013 385.26069641 C314.25963013 386.58069641 313.92963013 387.90069641 313.58963013 389.26069641 C189.50963013 389.26069641 65.42963013 389.26069641 -62.41036987 389.26069641 C-62.74036987 387.94069641 -63.07036987 386.62069641 -63.41036987 385.26069641 C-57.57267556 379.90420033 -51.61994715 374.75910971 -45.46115112 369.77632141 C-41.88980488 366.83144692 -38.398225 363.80352665 -34.91036987 360.76069641 C-29.77820917 356.28522119 -24.57851189 351.9206209 -19.28536987 347.63569641 C-15.12054092 344.19518554 -11.06133699 340.63653665 -6.99020386 337.08613586 C-1.55693328 332.35939333 3.9783318 327.77540006 9.58963013 323.26069641 C8.99126343 323.25135071 8.39289673 323.242005 7.77639771 323.2323761 C-14.04156082 322.80494274 -30.41665321 319.16949069 -46.41036987 303.26069641 C-46.96337769 302.74249329 -47.5163855 302.22429016 -48.08615112 301.69038391 C-51.85669811 297.80804173 -54.21231954 293.16131999 -56.66036987 288.38569641 C-57.00213257 287.72561584 -57.34389526 287.06553528 -57.6960144 286.38545227 C-61.60496684 278.43997572 -62.71078462 270.66122744 -62.67779541 261.87586975 C-62.68232652 260.97488721 -62.68685764 260.07390467 -62.69152606 259.14561963 C-62.70410844 256.14974558 -62.70255368 253.15405477 -62.70089722 250.15815735 C-62.70688632 248.000608 -62.71369274 245.84306078 -62.72125244 243.68551636 C-62.73888082 237.84031001 -62.74360649 231.99516227 -62.74488401 226.14993191 C-62.74630797 222.49354128 -62.75058221 218.83716545 -62.75587845 215.1807785 C-62.77436832 202.41199807 -62.78255037 189.64325932 -62.78097534 176.87446594 C-62.77977426 164.99282613 -62.80087293 153.11136807 -62.83246267 141.22977424 C-62.85865779 131.01120648 -62.86934128 120.79269797 -62.86806452 110.57409692 C-62.86755584 104.47879913 -62.87318722 98.38366293 -62.89442062 92.28839874 C-62.91385742 86.5525563 -62.91389015 80.81702873 -62.89938736 75.08117485 C-62.89730492 72.98384832 -62.90196619 70.88650179 -62.91410828 68.78920937 C-63.02050713 49.12746284 -59.75495191 33.29297361 -45.67599487 18.53804016 C-44.92833862 17.78651672 -44.18068237 17.03499329 -43.41036987 16.26069641 C-42.80708862 15.62261047 -42.20380737 14.98452454 -41.58224487 14.32710266 C-37.5184851 10.36051975 -33.05587199 7.86492256 -27.97286987 5.44819641 C-27.05997192 5.01277527 -27.05997192 5.01277527 -26.12863159 4.56855774 C-17.58041479 0.72333518 -9.29394027 -0.03402245 0 0 Z " fill="#FEFEFE" transform="translate(833.4103698730469,344.7393035888672)"/>
<path d="M0 0 C1.1476658 -0.00623996 2.2953316 -0.01247993 3.47777516 -0.01890898 C6.65475649 -0.03208753 9.83112475 -0.02736633 13.00809062 -0.0149641 C16.43763185 -0.00590684 19.86709076 -0.01988673 23.2966156 -0.03088379 C30.01190703 -0.04866703 36.72701959 -0.0448298 43.44231801 -0.03323323 C48.90074954 -0.02419763 54.35913096 -0.02297544 59.81756783 -0.02732849 C60.59461033 -0.02794142 61.37165284 -0.02855436 62.17224209 -0.02918586 C63.75082979 -0.03046477 65.32941746 -0.03176163 66.90800513 -0.03307623 C81.70961036 -0.04448164 96.51111649 -0.03136933 111.31270546 -0.00987476 C124.00955044 0.00799268 136.70624911 0.00489499 149.40309143 -0.0135498 C164.1503762 -0.03496329 178.8975741 -0.0433793 193.64487225 -0.03110075 C195.21794036 -0.02982657 196.79100848 -0.02856908 198.36407661 -0.02732849 C199.52501673 -0.02640284 199.52501673 -0.02640284 200.70941017 -0.02545848 C206.159947 -0.02200675 211.61042867 -0.02783018 217.06095695 -0.0372467 C223.70537849 -0.04847355 230.34961105 -0.04541249 236.99401098 -0.02412373 C240.38336994 -0.0136216 243.77215357 -0.01163476 247.16155052 -0.02272034 C250.83750757 -0.0336354 254.51257625 -0.01995907 258.18847656 0 C259.79178736 -0.01338433 259.79178736 -0.01338433 261.42748827 -0.02703905 C268.64197465 0.0490467 272.91824496 1.1814698 278.41288662 6.06923676 C283.14933244 12.94365717 282.35130202 20.98895076 282.28883362 28.9864502 C282.29397707 30.65936541 282.30126156 32.3322752 282.31051636 34.00517273 C282.32898442 38.53215661 282.31612099 43.05854929 282.29642606 47.58550835 C282.28000017 52.33167036 282.28885793 57.0777961 282.29394531 61.82397461 C282.29846187 69.79310512 282.2826236 77.76200058 282.25465393 85.7310791 C282.22260402 94.93342126 282.22261921 104.13533957 282.2398687 113.33771181 C282.25575393 122.2042956 282.24898738 131.07072458 282.23193169 139.93730164 C282.22507417 143.70428102 282.22608027 147.47113583 282.23347664 151.2381134 C282.24115981 155.67718733 282.22894734 160.11578116 282.20162773 164.55477333 C282.19476407 166.18008818 282.19462421 167.80544803 282.20184326 169.43076134 C282.26677057 185.95782024 282.26677057 185.95782024 277.6577301 191.50793457 C271.62002699 196.81207746 265.88372557 197.2227967 258.10618591 197.13612366 C256.96018925 197.14321804 255.81419258 197.15031243 254.63346875 197.1576218 C250.80250787 197.17519058 246.97256298 197.1571011 243.14161682 197.13903809 C240.39156821 197.1414199 237.64155745 197.15127 234.89152527 197.16072083 C228.2035374 197.17907356 221.51584222 197.17060162 214.82786356 197.1526326 C209.39234852 197.13859362 203.95691281 197.13471658 198.52138138 197.13807487 C197.74709649 197.13855232 196.9728116 197.13902976 196.17506353 197.13952167 C194.60203017 197.14054802 193.02899683 197.14160338 191.45596351 197.14268743 C177.55554987 197.1512494 163.65527737 197.13459462 149.75489807 197.1048584 C136.26981176 197.07601104 122.78492866 197.06894336 109.29981995 197.08435059 C94.60855727 197.10111294 79.91739102 197.10514749 65.22612584 197.08764023 C63.65956633 197.08579586 62.09300682 197.08396114 60.5264473 197.08213615 C59.7557006 197.08122406 58.9849539 197.08031197 58.19085123 197.07937225 C52.76136652 197.07376791 47.33192891 197.07707296 41.90244675 197.08368111 C35.28658147 197.0914137 28.67091622 197.08466418 22.05509125 197.05950607 C18.68002498 197.04701013 15.30552963 197.04301338 11.93041229 197.05204773 C8.27171473 197.0607139 4.61392826 197.04483256 0.95530701 197.02259827 C-0.11122451 197.03083903 -1.17775603 197.0390798 -2.27660668 197.04757029 C-9.86802904 196.96219693 -13.0126565 195.47758976 -18.6547699 190.44543457 C-21.84367103 186.78410365 -21.47388729 183.20234042 -21.48944092 178.54386902 C-21.49311761 177.83091748 -21.49679429 177.11796593 -21.5005824 176.3834098 C-21.511618 173.98830598 -21.51546284 171.59324555 -21.51927185 169.19812012 C-21.52553653 167.48329531 -21.53218333 165.76847186 -21.53918457 164.0536499 C-21.55659219 159.39035499 -21.56714542 154.72707033 -21.5753901 150.06375098 C-21.58054017 147.15085977 -21.58661586 144.23797174 -21.59290123 141.32508278 C-21.61195162 132.21293197 -21.62618376 123.10078926 -21.6345132 113.98862237 C-21.64428972 103.46693327 -21.67062071 92.94545431 -21.71101409 82.42383927 C-21.74115924 74.29296491 -21.7559805 66.16215085 -21.75929421 58.03122169 C-21.76164627 53.17402152 -21.77062712 48.3170459 -21.79575539 43.45990562 C-21.81901351 38.89047848 -21.82327849 34.32142409 -21.812994 29.75195312 C-21.812498 28.07578607 -21.81883739 26.3996008 -21.83255005 24.72348976 C-21.8502403 22.43286318 -21.84317825 20.1435786 -21.83001709 17.85295105 C-21.83240544 16.57186809 -21.8347938 15.29078512 -21.83725452 13.97088146 C-21.07048977 8.6065419 -18.71679988 5.77544183 -14.80116177 2.16468048 C-9.83931718 -0.21195228 -5.4367657 -0.04529123 0 0 Z " fill="#FEFEFE" transform="translate(829.3422698974609,399.4920654296875)"/>
<path d="M0 0 C1.11882195 -0.00382555 2.23764389 -0.00765109 3.39036953 -0.01159257 C7.12334202 -0.02187607 10.85615937 -0.01793921 14.58914185 -0.01396179 C17.27209987 -0.01831083 19.95504669 -0.02343051 22.63800049 -0.02944946 C29.15966297 -0.04217081 35.68128422 -0.04399337 42.20295702 -0.0416492 C47.50633315 -0.03986302 52.8096968 -0.0416221 58.11307144 -0.04587364 C58.86912506 -0.04646883 59.62517868 -0.04706402 60.40414301 -0.04767724 C61.94028416 -0.04888905 63.47642531 -0.05010319 65.01256646 -0.05131962 C79.40462399 -0.06218527 93.79665806 -0.06003728 108.1887169 -0.05393478 C121.34012443 -0.0487664 134.49145787 -0.0600207 147.64285074 -0.07903299 C161.16379416 -0.0984289 174.68470257 -0.10666433 188.20565999 -0.10290974 C195.78979947 -0.10100037 203.3738759 -0.10345951 210.958004 -0.11762428 C217.41445498 -0.12956141 223.8708041 -0.13091691 230.32725655 -0.11883412 C233.61779125 -0.11296172 236.90810226 -0.11344032 240.19863129 -0.12383652 C243.77435639 -0.1343171 247.34958541 -0.1261921 250.92529297 -0.11352539 C251.95323247 -0.12089968 252.98117197 -0.12827396 254.04026115 -0.13587171 C269.40461593 -0.02181763 285.56770988 6.38325827 296.58963013 17.26069641 C307.3107968 29.43406124 313.91802666 43.23743775 313.85705566 59.51853943 C313.86158678 60.41796198 313.86611789 61.31738453 313.87078631 62.2440623 C313.88338861 65.24070827 313.88181262 68.23717151 313.88015747 71.23384094 C313.88614542 73.38962028 313.89295158 75.54539748 313.9005127 77.70117188 C313.91815519 83.54650457 313.92286741 89.39177867 313.92414427 95.23713541 C313.9255677 98.89369595 313.929841 102.55024169 313.9351387 106.20679855 C313.95363496 118.97672722 313.96181004 131.74661417 313.9602356 144.51655579 C313.95903512 156.39758687 313.98012015 168.27843602 314.01172292 180.15942109 C314.03792752 190.37713506 314.0486011 200.59478978 314.04732478 210.81253707 C314.04681627 216.90732273 314.0524377 223.00194674 314.07368088 229.09669876 C314.09313305 234.83417253 314.09313999 240.57133164 314.07864761 246.30881691 C314.0765669 248.40572256 314.08121603 250.50264826 314.09336853 252.59951973 C314.20080669 272.43427544 310.92473967 290.34264341 296.58963013 305.26069641 C290.49811396 310.4615909 284.0878606 315.32720222 276.58963013 318.26069641 C275.72982544 318.61905579 274.87002075 318.97741516 273.98416138 319.34663391 C263.47648391 323.17996515 252.66172167 323.08776486 241.58963013 323.26069641 C250.02547495 330.50768155 258.48329434 337.72716206 266.98074341 344.90180969 C269.68535302 347.18615827 272.3873514 349.47359149 275.08963013 351.76069641 C276.17295111 352.67737767 277.25628444 353.59404434 278.33963013 354.51069641 C280.50629679 356.34402974 282.67296346 358.17736308 284.83963013 360.01069641 C285.37636353 360.46484924 285.91309692 360.91900208 286.46609497 361.38691711 C287.54457021 362.29948556 288.62302091 363.21208301 289.70144653 364.12471008 C292.48390361 366.47932337 295.26684306 368.83336293 298.05056763 371.18647766 C303.5787628 375.86032252 309.10220422 380.53895784 314.58963013 385.26069641 C314.25963013 386.58069641 313.92963013 387.90069641 313.58963013 389.26069641 C189.50963013 389.26069641 65.42963013 389.26069641 -62.41036987 389.26069641 C-62.74036987 387.94069641 -63.07036987 386.62069641 -63.41036987 385.26069641 C-57.57267556 379.90420033 -51.61994715 374.75910971 -45.46115112 369.77632141 C-41.88980488 366.83144692 -38.398225 363.80352665 -34.91036987 360.76069641 C-29.77820917 356.28522119 -24.57851189 351.9206209 -19.28536987 347.63569641 C-15.12054092 344.19518554 -11.06133699 340.63653665 -6.99020386 337.08613586 C-1.55693328 332.35939333 3.9783318 327.77540006 9.58963013 323.26069641 C8.99126343 323.25135071 8.39289673 323.242005 7.77639771 323.2323761 C-14.04156082 322.80494274 -30.41665321 319.16949069 -46.41036987 303.26069641 C-46.96337769 302.74249329 -47.5163855 302.22429016 -48.08615112 301.69038391 C-51.85669811 297.80804173 -54.21231954 293.16131999 -56.66036987 288.38569641 C-57.00213257 287.72561584 -57.34389526 287.06553528 -57.6960144 286.38545227 C-61.60496684 278.43997572 -62.71078462 270.66122744 -62.67779541 261.87586975 C-62.68232652 260.97488721 -62.68685764 260.07390467 -62.69152606 259.14561963 C-62.70410844 256.14974558 -62.70255368 253.15405477 -62.70089722 250.15815735 C-62.70688632 248.000608 -62.71369274 245.84306078 -62.72125244 243.68551636 C-62.73888082 237.84031001 -62.74360649 231.99516227 -62.74488401 226.14993191 C-62.74630797 222.49354128 -62.75058221 218.83716545 -62.75587845 215.1807785 C-62.77436832 202.41199807 -62.78255037 189.64325932 -62.78097534 176.87446594 C-62.77977426 164.99282613 -62.80087293 153.11136807 -62.83246267 141.22977424 C-62.85865779 131.01120648 -62.86934128 120.79269797 -62.86806452 110.57409692 C-62.86755584 104.47879913 -62.87318722 98.38366293 -62.89442062 92.28839874 C-62.91385742 86.5525563 -62.91389015 80.81702873 -62.89938736 75.08117485 C-62.89730492 72.98384832 -62.90196619 70.88650179 -62.91410828 68.78920937 C-63.02050713 49.12746284 -59.75495191 33.29297361 -45.67599487 18.53804016 C-44.92833862 17.78651672 -44.18068237 17.03499329 -43.41036987 16.26069641 C-42.80708862 15.62261047 -42.20380737 14.98452454 -41.58224487 14.32710266 C-37.5184851 10.36051975 -33.05587199 7.86492256 -27.97286987 5.44819641 C-27.05997192 5.01277527 -27.05997192 5.01277527 -26.12863159 4.56855774 C-17.58041479 0.72333518 -9.29394027 -0.03402245 0 0 Z M-49.88693237 26.25679016 C-60.64792407 40.41163309 -61.00201829 56.6046302 -60.927948 73.6295929 C-60.93337942 75.74375386 -60.94050776 77.85791104 -60.94918823 79.97206116 C-60.96730421 85.67257442 -60.96040244 91.37279561 -60.94767189 97.07331347 C-60.9374818 103.06490486 -60.94695428 109.05647272 -60.95321655 115.04806519 C-60.9604761 125.10735013 -60.95095034 135.16651728 -60.93185425 145.2257843 C-60.91009481 156.82121905 -60.91713714 168.41637231 -60.93915987 180.01180023 C-60.95736927 190.00295257 -60.959845 199.99402066 -60.94940519 209.98518425 C-60.94319989 215.93682942 -60.94225237 221.88834271 -60.95555115 227.83997917 C-60.96718972 233.43887237 -60.95893883 239.03740621 -60.93597412 244.63626099 C-60.93072928 246.67910735 -60.93212737 248.72198447 -60.94102478 250.76481819 C-61.0208608 270.97352235 -58.40932995 288.46496891 -43.72286987 303.57319641 C-26.80432072 320.09693526 -8.49765067 320.85475861 13.87210083 320.77827454 C16.53769829 320.78370069 19.20325126 320.79068277 21.86883545 320.79951477 C28.33419211 320.81722255 34.79936213 320.81349429 41.26472584 320.80186421 C46.52506795 320.79279712 51.7853581 320.79161998 57.0457058 320.79595947 C57.79699848 320.7965724 58.54829116 320.79718534 59.32235029 320.79781684 C60.84905966 320.79909587 62.37576902 320.80039273 63.90247836 320.80170721 C78.19125185 320.81309094 92.47992239 320.80003528 106.76867899 320.77850574 C118.99867977 320.76064773 131.22852859 320.76373243 143.45852661 320.78218079 C157.69468708 320.8036456 171.93075742 320.81198102 186.16693181 320.79973173 C187.68865691 320.79845768 189.21038203 320.79720019 190.73210716 320.79595947 C191.85488097 320.79503382 191.85488097 320.79503382 193.00033707 320.79408947 C198.24585049 320.79065252 203.49130621 320.79642917 208.73681068 320.80587769 C215.14182396 320.81716215 221.54664146 320.81392406 227.95163266 320.79275471 C231.21248609 320.78232827 234.47295177 320.7801735 237.73381233 320.79135132 C256.48143239 320.84965816 272.67274485 320.35354107 288.58963013 309.26069641 C289.24189575 308.8108136 289.89416138 308.36093079 290.56619263 307.89741516 C302.79344785 298.43385461 309.22096852 284.15531051 311.58963013 269.26069641 C311.84001413 266.12325938 311.86499015 263.00908428 311.85032654 259.86277771 C311.85415209 258.97248584 311.85797763 258.08219396 311.86191911 257.16492355 C311.87215596 254.21127171 311.86827481 251.25781766 311.86428833 248.30415344 C311.86863996 246.17439089 311.87382461 244.0446299 311.879776 241.91487122 C311.89312853 236.15036095 311.89374885 230.38591639 311.8912127 224.62139368 C311.89014047 219.80048088 311.89503279 214.97958123 311.89981812 210.15867126 C311.9109003 198.78104847 311.91135793 187.4034587 311.90530396 176.02583313 C311.89926421 164.3072083 311.91157823 152.58870354 311.93287402 140.87009919 C311.950514 130.79080477 311.95648761 120.7115485 311.95323628 110.63223922 C311.95142715 104.62029813 311.95402268 98.6084427 311.96795082 92.59651566 C311.98056356 86.94113713 311.97855242 81.28594525 311.96553993 75.63056946 C311.96318214 73.56185212 311.96588009 71.4931215 311.97416306 69.4244194 C312.04944633 49.15143976 308.85557086 33.59849674 294.58963013 18.26069641 C281.62384758 5.78418868 266.58423141 1.93469652 249.05937195 2 C247.39801009 1.99426168 247.39801009 1.99426168 245.70308536 1.98840743 C242.02011669 1.97815167 238.33730608 1.98205543 234.65432739 1.98603821 C232.00225312 1.98168766 229.35019012 1.97656723 226.69812012 1.97055054 C220.25928134 1.95784566 213.82048434 1.95600452 207.38163514 1.9583508 C202.14505834 1.96013863 196.90849416 1.95837439 191.67191887 1.95412636 C190.92475104 1.95353117 190.1775832 1.95293598 189.40777392 1.95232276 C187.88959257 1.95111092 186.37141122 1.94989679 184.85322987 1.94868038 C170.63806041 1.93782135 156.42291472 1.93995973 142.20774394 1.94606522 C129.22203518 1.95123452 116.23640144 1.93997569 103.25070751 1.92096701 C89.89354766 1.9015655 76.53642326 1.89333656 63.17924923 1.89709026 C55.68956369 1.89899859 48.19994201 1.89655059 40.71026802 1.88237572 C34.33514081 1.87043151 27.96011678 1.86909106 21.58498807 1.88116588 C18.33684525 1.88703299 15.08892869 1.88657043 11.8407917 1.87616348 C8.30931233 1.86566737 4.77833374 1.87382018 1.24687195 1.88647461 C0.23488237 1.87910032 -0.7771072 1.87172604 -1.81976312 1.86412829 C-21.8583452 2.01438065 -37.25197413 11.10077217 -49.88693237 26.25679016 Z " fill="#000000" transform="translate(833.4103698730469,344.7393035888672)"/>
<path d="M0 0 C0.80747177 -0.00540298 1.61494354 -0.01080597 2.44688416 -0.01637268 C5.09786416 -0.02880958 7.74774721 -0.01240162 10.39868164 0.00561523 C12.25281328 0.00546011 14.10694524 0.00396897 15.96107483 0.00120544 C19.84040728 -0.00017635 23.71936904 0.01234143 27.59863281 0.03515625 C32.55602954 0.06352025 37.51280984 0.06080595 42.47025204 0.04806614 C46.29742133 0.04108994 50.12444973 0.04892071 53.95160103 0.06132317 C55.77872743 0.06582021 57.60586905 0.06618983 59.43299675 0.06225777 C61.99340349 0.05932694 64.55297982 0.07594163 67.11328125 0.09765625 C67.85898376 0.0931546 68.60468628 0.08865295 69.37298584 0.08401489 C75.30979012 0.16710709 80.91798158 1.29936079 85.64477539 5.15014648 C90.00162037 10.71582706 92.12525828 14.97163694 91.93383789 22.16186523 C91.21060986 27.57703512 88.72202194 31.81723196 84.62133789 35.37670898 C79.3802991 39.08911146 75.81680123 39.80261753 69.3996582 39.80810547 C68.57311737 39.81642899 67.74657654 39.8247525 66.89498901 39.83332825 C64.16309897 39.85741798 61.43144788 39.86619997 58.69946289 39.87280273 C56.7962029 39.88177129 54.89294362 39.89089318 52.98968506 39.90016174 C48.99839567 39.91665251 45.00719016 39.92435176 41.01586914 39.92724609 C35.91362782 39.93262371 30.81218053 39.97027769 25.71016312 40.01599026 C21.77749797 40.045809 17.84502269 40.05297073 13.91225433 40.05397224 C12.03205486 40.05816656 10.15185442 40.07056908 8.27176666 40.09148979 C5.63412544 40.11849877 2.99830692 40.11355068 0.3605957 40.10107422 C-0.79307999 40.12332565 -0.79307999 40.12332565 -1.97006226 40.14602661 C-7.86140697 40.06710469 -11.77792214 38.13956767 -16.37866211 34.50170898 C-21.71097766 28.75921532 -21.84775471 23.64086283 -21.78491211 16.02905273 C-21.19377817 10.89641859 -19.33527068 7.76920178 -15.37866211 4.50170898 C-10.025529 0.92556963 -6.37787881 -0.0824648 0 0 Z " fill="#FDFDFD" transform="translate(924.378662109375,351.498291015625)"/>
<path d="M0 0 C0.9621564 -0.01073235 1.9243128 -0.02146469 2.91562545 -0.03252226 C6.1665292 -0.0671775 9.41745008 -0.09431366 12.66842651 -0.12123108 C14.9890364 -0.14385053 17.30964387 -0.16671905 19.63024902 -0.18981934 C40.86771295 -0.39239788 62.10605089 -0.50426025 83.34427071 -0.59303951 C86.18995383 -0.60514714 89.03563588 -0.61748073 91.88131714 -0.63002014 C92.94221638 -0.63468041 92.94221638 -0.63468041 94.02454792 -0.63943482 C105.45418997 -0.69114737 116.88275785 -0.79524603 128.31181265 -0.91981237 C140.05609839 -1.04674563 151.79982815 -1.12001576 163.54478157 -1.14344698 C170.13522841 -1.158799 176.72349012 -1.19812841 183.31326675 -1.29632378 C189.52419156 -1.38792687 195.73190202 -1.41255097 201.9434166 -1.38733864 C204.21420532 -1.38958093 206.48512346 -1.41553461 208.75531006 -1.46787262 C219.24720937 -1.69731138 227.66369229 -1.86340951 235.89922893 5.28627151 C238.81030853 8.12381171 241.42236392 11.02339194 243.94528198 14.21446228 C243.94528198 14.54446228 243.94528198 14.87446228 243.94528198 15.21446228 C155.50528198 15.21446228 67.06528198 15.21446228 -24.05471802 15.21446228 C-17.31146127 7.34732941 -17.31146127 7.34732941 -13.74221802 4.33946228 C-13.06546021 3.76454041 -12.38870239 3.18961853 -11.69143677 2.59727478 C-11.15131958 2.14094666 -10.61120239 1.68461853 -10.05471802 1.21446228 C-7.91083421 -0.92942153 -2.97267823 0.02161151 0 0 Z " fill="#FEFEFE" transform="translate(849.0547180175781,701.7855377197266)"/>
<path d="M0 0 C1.64190808 -0.0122121 3.28379149 -0.02824619 4.92562866 -0.04779053 C9.3641954 -0.08865863 13.8008698 -0.07298406 18.23946762 -0.04437876 C22.89577891 -0.02150739 27.55193393 -0.04274818 32.20825195 -0.05685425 C40.02617325 -0.07320381 47.84332804 -0.0517151 55.66113281 -0.00878906 C64.68503781 0.04018892 73.70711257 0.02432155 82.73097324 -0.02522671 C90.4944472 -0.06613955 98.25737186 -0.07179795 106.02091885 -0.04827869 C110.6508577 -0.0342854 115.27993773 -0.03226901 119.90982056 -0.06210709 C124.26422921 -0.08821231 128.61629109 -0.06989041 132.97044754 -0.01805878 C134.56306699 -0.00621328 136.15588585 -0.00948355 137.74842453 -0.02942276 C149.72474767 -0.16548509 149.72474767 -0.16548509 154.52774048 3.06988907 C156.80258622 5.32289217 158.73250013 7.6423226 160.69921875 10.16455078 C162.34921875 11.81455078 163.99921875 13.46455078 165.69921875 15.16455078 C101.01921875 15.16455078 36.33921875 15.16455078 -30.30078125 15.16455078 C-28.65078125 13.51455078 -27.00078125 11.86455078 -25.30078125 10.16455078 C-24.67907547 9.36724108 -24.05736969 8.56993137 -23.41682434 7.74846077 C-16.80636734 -0.29461975 -9.68494493 -0.12125931 0 0 Z " fill="#FEFEFE" transform="translate(891.30078125,667.83544921875)"/>
<path d="M0 0 C7.18329463 3.97293622 12.16509994 9.70470075 14.6875 17.5625 C15.72785076 26.53141864 15.13555884 34.17530157 9.6875 41.5625 C4.18832662 47.75346705 -1.40174442 51.04527249 -9.61328125 51.91015625 C-18.75235745 52.29299618 -24.56360433 50.92107548 -31.30859375 44.73046875 C-37.03360271 38.69599985 -39.37956297 33.08414439 -39.875 24.8125 C-39.64972183 17.07468462 -36.81809033 10.15307434 -31.37890625 4.58203125 C-29.42558906 3.03993873 -27.48206721 1.77728714 -25.3125 0.5625 C-24.24 -0.05625 -23.1675 -0.675 -22.0625 -1.3125 C-14.24288165 -3.6583855 -7.47311898 -3.37133187 0 0 Z " fill="#FDFDFD" transform="translate(1055.3125,607.4375)"/>
<path d="M0 0 C6.74919642 3.74169081 10.65386438 8.58364769 14.125 15.375 C15.88274963 25.33558122 14.92065449 33.01433914 9.4375 41.49609375 C4.82554978 47.58858481 -1.16941422 50.97809684 -8.71875 52.04296875 C-17.76368289 52.40673236 -24.54842629 50.79422456 -31.375 44.73046875 C-38.27483632 37.44251664 -39.91673658 30.61827909 -39.6640625 20.68359375 C-38.87646443 13.69147315 -35.17078955 8.53377303 -30.3125 3.5625 C-20.76942425 -3.10668397 -10.77482839 -4.88657418 0 0 Z " fill="#FCFCFC" transform="translate(887.3125,607.4375)"/>
<path d="M0 0 C1.11882195 -0.00382555 2.23764389 -0.00765109 3.39036953 -0.01159257 C7.12334202 -0.02187607 10.85615937 -0.01793921 14.58914185 -0.01396179 C17.27209987 -0.01831083 19.95504669 -0.02343051 22.63800049 -0.02944946 C29.15966297 -0.04217081 35.68128422 -0.04399337 42.20295702 -0.0416492 C47.50633315 -0.03986302 52.8096968 -0.0416221 58.11307144 -0.04587364 C58.86912506 -0.04646883 59.62517868 -0.04706402 60.40414301 -0.04767724 C61.94028416 -0.04888905 63.47642531 -0.05010319 65.01256646 -0.05131962 C79.40462399 -0.06218527 93.79665806 -0.06003728 108.1887169 -0.05393478 C121.34012443 -0.0487664 134.49145787 -0.0600207 147.64285074 -0.07903299 C161.16379416 -0.0984289 174.68470257 -0.10666433 188.20565999 -0.10290974 C195.78979947 -0.10100037 203.3738759 -0.10345951 210.958004 -0.11762428 C217.41445498 -0.12956141 223.8708041 -0.13091691 230.32725655 -0.11883412 C233.61779125 -0.11296172 236.90810226 -0.11344032 240.19863129 -0.12383652 C243.77435639 -0.1343171 247.34958541 -0.1261921 250.92529297 -0.11352539 C251.95323247 -0.12089968 252.98117197 -0.12827396 254.04026115 -0.13587171 C269.40461593 -0.02181763 285.56770988 6.38325827 296.58963013 17.26069641 C307.3107968 29.43406124 313.91802666 43.23743775 313.85705566 59.51853943 C313.86158678 60.41796198 313.86611789 61.31738453 313.87078631 62.2440623 C313.88338861 65.24070827 313.88181262 68.23717151 313.88015747 71.23384094 C313.88614542 73.38962028 313.89295158 75.54539748 313.9005127 77.70117188 C313.91815519 83.54650457 313.92286741 89.39177867 313.92414427 95.23713541 C313.9255677 98.89369595 313.929841 102.55024169 313.9351387 106.20679855 C313.95363496 118.97672722 313.96181004 131.74661417 313.9602356 144.51655579 C313.95903512 156.39758687 313.98012015 168.27843602 314.01172292 180.15942109 C314.03792752 190.37713506 314.0486011 200.59478978 314.04732478 210.81253707 C314.04681627 216.90732273 314.0524377 223.00194674 314.07368088 229.09669876 C314.09313305 234.83417253 314.09313999 240.57133164 314.07864761 246.30881691 C314.0765669 248.40572256 314.08121603 250.50264826 314.09336853 252.59951973 C314.20080669 272.43427544 310.92473967 290.34264341 296.58963013 305.26069641 C286.64534777 313.7510561 276.44248635 319.4895118 263.58963013 322.26069641 C261.19900513 321.86616516 261.19900513 321.86616516 259.58963013 321.26069641 C259.91963013 320.60069641 260.24963013 319.94069641 260.58963013 319.26069641 C263.02680265 318.6281707 265.43964939 318.08492806 267.90213013 317.57319641 C275.71139969 315.79074068 281.95991589 312.82713465 288.58963013 308.26069641 C289.64150513 307.53882141 290.69338013 306.81694641 291.77713013 306.07319641 C303.87839284 293.9719337 310.73213153 279.47892649 310.86177903 262.32008946 C310.85799971 261.50917658 310.85422039 260.6982637 310.85032654 259.86277771 C310.85415209 258.97248584 310.85797763 258.08219396 310.86191911 257.16492355 C310.87215596 254.21127171 310.86827481 251.25781766 310.86428833 248.30415344 C310.86863996 246.17439089 310.87382461 244.0446299 310.879776 241.91487122 C310.89312853 236.15036095 310.89374885 230.38591639 310.8912127 224.62139368 C310.89014047 219.80048088 310.89503279 214.97958123 310.89981812 210.15867126 C310.9109003 198.78104847 310.91135793 187.4034587 310.90530396 176.02583313 C310.89926421 164.3072083 310.91157823 152.58870354 310.93287402 140.87009919 C310.950514 130.79080477 310.95648761 120.7115485 310.95323628 110.63223922 C310.95142715 104.62029813 310.95402268 98.6084427 310.96795082 92.59651566 C310.98056356 86.94113713 310.97855242 81.28594525 310.96553993 75.63056946 C310.96318214 73.56185212 310.96588009 71.4931215 310.97416306 69.4244194 C311.04647014 49.95289471 308.29054538 34.10790338 294.58963013 19.26069641 C281.6113192 6.7868428 266.59072388 2.93467233 249.05937195 3 C247.39801009 2.99426168 247.39801009 2.99426168 245.70308536 2.98840743 C242.02011669 2.97815167 238.33730608 2.98205543 234.65432739 2.98603821 C232.00225312 2.98168766 229.35019012 2.97656723 226.69812012 2.97055054 C220.25928134 2.95784566 213.82048434 2.95600452 207.38163514 2.9583508 C202.14505834 2.96013863 196.90849416 2.95837439 191.67191887 2.95412636 C190.92475104 2.95353117 190.1775832 2.95293598 189.40777392 2.95232276 C187.88959257 2.95111092 186.37141122 2.94989679 184.85322987 2.94868038 C170.63806041 2.93782135 156.42291472 2.93995973 142.20774394 2.94606522 C129.22203518 2.95123452 116.23640144 2.93997569 103.25070751 2.92096701 C89.89354766 2.9015655 76.53642326 2.89333656 63.17924923 2.89709026 C55.68956369 2.89899859 48.19994201 2.89655059 40.71026802 2.88237572 C34.33514081 2.87043151 27.96011678 2.86909106 21.58498807 2.88116588 C18.33684525 2.88703299 15.08892869 2.88657043 11.8407917 2.87616348 C8.30931233 2.86566737 4.77833374 2.87382018 1.24687195 2.88647461 C0.23488237 2.87910032 -0.7771072 2.87172604 -1.81976312 2.86412829 C-17.39311988 2.9808997 -30.96861929 8.24822266 -42.22677612 19.03804016 C-57.86542417 34.95644936 -60.02139682 52.15049831 -59.927948 73.6295929 C-59.93337942 75.74375386 -59.94050776 77.85791104 -59.94918823 79.97206116 C-59.96730421 85.67257442 -59.96040244 91.37279561 -59.94767189 97.07331347 C-59.9374818 103.06490486 -59.94695428 109.05647272 -59.95321655 115.04806519 C-59.9604761 125.10735013 -59.95095034 135.16651728 -59.93185425 145.2257843 C-59.91009481 156.82121905 -59.91713714 168.41637231 -59.93915987 180.01180023 C-59.95736927 190.00295257 -59.959845 199.99402066 -59.94940519 209.98518425 C-59.94319989 215.93682942 -59.94225237 221.88834271 -59.95555115 227.83997917 C-59.96718972 233.43887237 -59.95893883 239.03740621 -59.93597412 244.63626099 C-59.93072928 246.67910735 -59.93212737 248.72198447 -59.94102478 250.76481819 C-60.02012439 270.78711861 -57.55342796 287.87537112 -43.22286987 303.07319641 C-32.71061017 313.0261408 -20.63319478 318.09543053 -6.41036987 320.26069641 C-6.41036987 320.92069641 -6.41036987 321.58069641 -6.41036987 322.26069641 C-14.98563578 322.07501152 -21.74196361 320.04336455 -29.41036987 316.26069641 C-30.69427612 315.62841125 -30.69427612 315.62841125 -32.00411987 314.98335266 C-46.24296215 307.21056692 -56.32062285 293.66680399 -60.93771362 278.22554016 C-61.09369019 277.57714172 -61.24966675 276.92874329 -61.41036987 276.26069641 C-61.58208301 275.57881256 -61.75379614 274.89692871 -61.9307127 274.19438171 C-62.57826331 270.23382441 -62.55842402 266.3637094 -62.55754089 262.35688782 C-62.56121758 261.45932298 -62.56489427 260.56175814 -62.56868237 259.63699436 C-62.57969711 256.6287434 -62.58355934 253.620527 -62.58737183 250.61225891 C-62.59363824 248.45530081 -62.6002852 246.29834379 -62.60728455 244.14138794 C-62.6283095 237.05616505 -62.63868677 229.97094199 -62.64865112 222.88569641 C-62.65269953 220.44389332 -62.65681647 218.00209034 -62.66100121 215.56028748 C-62.68005092 204.08546183 -62.69428136 192.6106426 -62.70261317 181.13580418 C-62.71237943 167.90485013 -62.73868409 154.67406366 -62.77911407 141.44316864 C-62.80931367 131.20770376 -62.82408578 120.97228681 -62.82739419 110.73677826 C-62.82974063 104.62799644 -62.83864821 98.51939368 -62.86385536 92.41065979 C-62.88720765 86.65846903 -62.89134044 80.90657432 -62.88109398 75.15434837 C-62.88060022 73.05056967 -62.8868731 70.94677603 -62.90065002 68.84304237 C-63.02229817 49.15553618 -59.77541262 33.3144167 -45.67599487 18.53804016 C-44.92833862 17.78651672 -44.18068237 17.03499329 -43.41036987 16.26069641 C-42.80708862 15.62261047 -42.20380737 14.98452454 -41.58224487 14.32710266 C-37.5184851 10.36051975 -33.05587199 7.86492256 -27.97286987 5.44819641 C-27.05997192 5.01277527 -27.05997192 5.01277527 -26.12863159 4.56855774 C-17.58041479 0.72333518 -9.29394027 -0.03402245 0 0 Z " fill="#030303" transform="translate(833.4103698730469,344.7393035888672)"/>
<path d="M0 0 C1.72172199 -0.00935994 1.72172199 -0.00935994 3.47822624 -0.01890898 C7.32131067 -0.03485349 11.16376215 -0.02222818 15.0068512 -0.00964355 C17.76335456 -0.01286376 20.51983112 -0.02204169 23.27632141 -0.03088379 C29.98445872 -0.04865672 36.69241686 -0.04483439 43.40056115 -0.03323323 C48.85371609 -0.02419357 54.30682087 -0.0229772 59.75998116 -0.02732849 C60.53659945 -0.02794142 61.31321775 -0.02855436 62.11336993 -0.02918586 C63.69115036 -0.03046479 65.26893077 -0.03176164 66.84671117 -0.03307623 C81.63690573 -0.04447862 96.42700108 -0.03137408 111.21717937 -0.00987476 C123.90118869 0.0079924 136.58505155 0.00489464 149.26905823 -0.0135498 C164.00537291 -0.03496864 178.74160063 -0.04337631 193.4779287 -0.03110075 C195.05015662 -0.02982658 196.62238455 -0.0285691 198.1946125 -0.02732849 C198.96813688 -0.02671139 199.74166125 -0.02609429 200.53862576 -0.02545848 C205.98319404 -0.02200836 211.42770705 -0.02782672 216.87226677 -0.0372467 C223.51041389 -0.04847949 230.14837188 -0.04540002 236.78649741 -0.02412373 C240.17193673 -0.01362958 243.55680078 -0.01162513 246.94227791 -0.02272034 C250.61564151 -0.03364912 254.28811866 -0.01994241 257.96142578 0 C259.02670468 -0.00892289 260.09198358 -0.01784577 261.18954366 -0.02703905 C268.95138953 0.0547057 274.89641147 1.62765679 280.50476074 7.19970703 C284.3192341 13.26331231 283.22719823 21.53461143 283.17530823 28.4395752 C283.18044999 30.17307771 283.1877332 31.906575 283.19699097 33.64006042 C283.21548057 38.33644468 283.20258186 43.03226006 283.18290067 47.72862053 C283.16649268 52.6487581 283.17533006 57.56886025 283.18041992 62.48901367 C283.18493847 70.75078396 283.16908581 79.01232767 283.14112854 87.27404785 C283.10907775 96.81891077 283.10909318 106.36336508 283.12634331 115.90825701 C283.1422199 125.09893944 283.13546754 134.2894724 283.1184063 143.48014832 C283.11154272 147.38750702 283.11256114 151.29474567 283.11995125 155.20210266 C283.12762552 159.805309 283.11545073 164.40805164 283.08810234 169.01117897 C283.0812294 170.69819068 283.08110884 172.38524578 283.08831787 174.07225609 C283.09704104 176.3799016 283.08101032 178.68612535 283.05886841 180.99365234 C283.05606149 182.28336693 283.05325457 183.57308151 283.05036259 184.90187836 C282.3276353 190.05085526 280.65908601 193.53446716 276.90811843 197.03462213 C271.21815923 201.16989164 265.75528746 201.21177831 258.91673279 201.13612366 C257.76256902 201.14321804 256.60840525 201.15031243 255.41926682 201.1576218 C252.23334212 201.1721288 249.04839152 201.16435226 245.86251092 201.14689887 C242.42006478 201.13348948 238.97772901 201.14897452 235.53529358 201.16072083 C228.7991795 201.17907417 222.06335601 201.1706012 215.32725106 201.1526326 C209.85264387 201.13859397 204.37811544 201.1347165 198.90349197 201.13807487 C198.12365636 201.13855232 197.34382075 201.13902976 196.54035375 201.13952167 C194.95604639 201.14054802 193.37173905 201.14160338 191.78743173 201.14268743 C177.78718991 201.15124953 163.78708822 201.13459421 149.78688049 201.1048584 C136.2047894 201.07601109 122.62290008 201.0689433 109.04078674 201.08435059 C94.24404887 201.10111276 79.44740673 201.10514766 64.65066636 201.08764023 C63.07287289 201.08579586 61.49507941 201.08396113 59.91728592 201.08213615 C59.141011 201.08122406 58.36473608 201.08031197 57.56493767 201.07937225 C52.09637975 201.0737678 46.62786859 201.07707307 41.1593132 201.08368111 C34.49587136 201.09141353 27.8326281 201.0846648 21.16922627 201.05950607 C17.76993093 201.04701 14.37094479 201.04086556 10.97163773 201.05204773 C7.2866681 201.06071342 3.60260319 201.04483333 -0.08229065 201.02259827 C-1.15660406 201.03083903 -2.23091748 201.0390798 -3.33778584 201.04757029 C-10.44924861 200.96815775 -13.95233351 199.9115352 -19.10032654 194.91027832 C-23.0710646 189.93025567 -23.58249018 186.7913165 -23.60969543 180.51263428 C-23.61407769 179.79630475 -23.61845994 179.07997522 -23.62297499 178.34193873 C-23.63635739 175.93535396 -23.64254058 173.5288058 -23.64866638 171.12219238 C-23.65656776 169.39913772 -23.66483674 167.67608471 -23.67344666 165.95303345 C-23.69966163 160.28905822 -23.71497333 154.62507562 -23.72923279 148.96105957 C-23.7345926 147.01131943 -23.73997011 145.06157934 -23.74536514 143.11183929 C-23.76699269 135.00175746 -23.78572961 126.89167762 -23.79698753 118.78157425 C-23.8132285 107.15817856 -23.84641133 95.53511706 -23.90338838 83.91184735 C-23.94208436 75.73934589 -23.9616198 67.56693382 -23.9669081 59.39434314 C-23.97056189 54.51302075 -23.98258622 49.63205484 -24.01501083 44.7508316 C-24.04508559 40.15754354 -24.05140547 35.56482777 -24.03962708 30.97146225 C-24.03940629 29.28764335 -24.04771526 27.60379794 -24.06528091 25.92007065 C-24.20625118 11.62712701 -24.20625118 11.62712701 -21.35682678 7.20147705 C-14.37821405 0.72199212 -9.26992726 -0.07748362 0 0 Z M-19.45579529 8.50793457 C-21.70398294 12.26441988 -21.70947387 15.22211955 -21.7164917 19.59898376 C-21.72031725 20.3134953 -21.72414279 21.02800683 -21.72808427 21.76417023 C-21.73840373 24.15856949 -21.73442417 26.55272848 -21.73045349 28.94714355 C-21.73480055 30.66373924 -21.73998367 32.38033298 -21.74594116 34.09692383 C-21.75934294 38.76011893 -21.75990853 43.42323305 -21.75737786 48.08644366 C-21.75630898 51.97820377 -21.76118939 55.86994744 -21.76598328 59.76170403 C-21.77708249 68.94218203 -21.77751351 78.12261912 -21.77146912 87.30310059 C-21.76542758 96.77686744 -21.77774395 106.25048584 -21.79903919 115.72422737 C-21.81664635 123.85596332 -21.82265795 131.98765197 -21.81940144 140.11940628 C-21.81758707 144.97706485 -21.82024011 149.83461751 -21.83411598 154.69225883 C-21.84667536 159.26002336 -21.84476817 163.82755619 -21.83170509 168.39531708 C-21.82933566 170.07189321 -21.83208713 171.74848555 -21.84032822 173.42504311 C-21.85076657 175.71359928 -21.84271909 178.00137382 -21.83001709 180.28990173 C-21.83018483 181.57060767 -21.83035257 182.85131361 -21.8305254 184.17082882 C-21.35174559 188.43453433 -19.9188108 191.033751 -16.92063904 194.05480957 C-12.91046667 197.21371773 -10.91778674 198.63100441 -5.85918236 198.64494896 C-4.88478309 198.6500235 -3.91038382 198.65509804 -2.9064573 198.66032636 C-1.82827442 198.66082412 -0.75009154 198.66132188 0.36076355 198.66183472 C1.50022253 198.66621697 2.63968152 198.67059922 3.81366956 198.67511427 C6.98615092 198.68619507 10.15860441 198.69273176 13.3311007 198.69729543 C16.74912024 198.70324588 20.16712154 198.71485724 23.58512878 198.72558594 C31.8454287 198.75012473 40.10573467 198.76474028 48.36605984 198.77764601 C50.69891354 198.78135719 53.03176663 198.78533049 55.36461973 198.78939867 C69.84853047 198.81463702 84.33244213 198.83669216 98.81637001 198.84912682 C102.17242562 198.85205657 105.5284812 198.85501822 108.88453674 198.85803223 C110.13575072 198.8591513 110.13575072 198.8591513 111.41224174 198.86029299 C124.92181478 198.87294384 138.43125612 198.90616208 151.9407676 198.94783406 C165.80838262 198.99026015 179.67593023 199.01382272 193.54360998 199.01904738 C201.33070864 199.022461 209.11760159 199.03421 216.90463638 199.06715012 C223.53740923 199.0951613 230.16993423 199.10614544 236.80276163 199.09495465 C240.18627645 199.08977019 243.5688522 199.09536869 246.95236206 199.1174202 C250.62392338 199.14004701 254.29417659 199.13184473 257.96574402 199.11593628 C259.03054257 199.12981837 260.09534112 199.14370045 261.1924063 199.15800321 C267.83139216 199.08711056 272.47843312 197.96316115 277.54420471 193.50793457 C283.25765803 186.62706515 282.11519534 177.48201314 282.07765198 169.02941895 C282.08471665 167.35650372 282.09346398 165.68359488 282.10375977 164.01069641 C282.12620043 159.48381248 282.12332679 154.95727906 282.1144383 150.43036079 C282.10931725 146.64553454 282.11662991 142.8607735 282.12391037 139.07595396 C282.140892 130.14550764 282.13736049 121.21523227 282.12062073 112.28479004 C282.10369394 103.08240382 282.11954549 93.88049178 282.15184361 84.67815733 C282.17855994 76.76537433 282.1858102 68.85273875 282.17732853 60.93991518 C282.17240615 56.21908826 282.17457782 51.49854669 282.19511604 46.77775574 C282.2135058 42.33862996 282.20747454 37.90018525 282.18291664 33.46109581 C282.1779195 31.83576991 282.18137001 30.21039181 282.19406509 28.5851078 C282.42862501 17.79512919 282.42862501 17.79512919 278.29936123 8.06923676 C271.83313605 2.31719618 266.47357127 1.92716947 258.08840942 1.98654175 C256.94059476 1.97889065 255.7927801 1.97123956 254.61018318 1.96335661 C250.76712143 1.94273205 246.92465927 1.95067382 243.08155823 1.95861816 C240.32505061 1.95210939 237.56857625 1.93968555 234.81208801 1.92764282 C228.10396812 1.90216767 221.3960084 1.89855898 214.68784828 1.90324335 C209.23469015 1.90681189 203.78158059 1.90330575 198.32842827 1.89479446 C197.55180997 1.89360409 196.77519168 1.89241371 195.97503949 1.89118726 C194.39725907 1.88876372 192.81947866 1.88633545 191.24169826 1.88390251 C176.45151349 1.86215898 161.66141996 1.8664731 146.87123006 1.8786722 C133.34575799 1.8890116 119.82057396 1.86649584 106.29515887 1.82847576 C92.40023887 1.789717 78.50545514 1.77320716 64.61048073 1.78072226 C56.81227159 1.78454588 49.01430765 1.77957555 41.21614265 1.75129318 C34.57793555 1.72746092 27.94012459 1.72466031 21.30191202 1.74887352 C17.91622817 1.7606488 14.53186219 1.75960419 11.14613152 1.73886871 C7.47240952 1.7179914 3.8006352 1.73408483 0.12698364 1.75949097 C-0.93829526 1.7447424 -2.00357416 1.72999383 -3.10113424 1.71479833 C-10.05370496 1.81597299 -14.66436071 3.28440607 -19.45579529 8.50793457 Z " fill="#202020" transform="translate(829.4557952880859,397.4920654296875)"/>
<path d="M0 0 C0.97788266 -0.00445784 1.95576533 -0.00891569 2.9632808 -0.01350862 C4.58639154 -0.01323207 4.58639154 -0.01323207 6.2422924 -0.01294994 C7.38583494 -0.01662663 8.52937748 -0.02030332 9.70757282 -0.02409142 C12.89145791 -0.03322946 16.07531271 -0.03783042 19.25920868 -0.04048073 C22.68949627 -0.04437984 26.11976888 -0.05395857 29.55004692 -0.0626936 C37.8400138 -0.08247112 46.12998193 -0.0925267 54.41996652 -0.10142139 C58.3230318 -0.10580294 62.22609572 -0.11117017 66.12915993 -0.11641026 C79.10313256 -0.13342526 92.07710434 -0.14791898 105.05108643 -0.155159 C108.41917357 -0.15706893 111.78726071 -0.15898925 115.15534782 -0.16094494 C115.99248109 -0.16142868 116.82961435 -0.16191242 117.69211529 -0.16241082 C131.25016514 -0.17070935 144.8081267 -0.19604203 158.366138 -0.22852562 C172.28347445 -0.26159837 186.20076605 -0.27960803 200.11814201 -0.28280324 C207.93315214 -0.28496834 215.74803361 -0.29371679 223.56300545 -0.31926441 C230.21954527 -0.34097455 236.8759252 -0.34902041 243.53249641 -0.33929763 C246.9279732 -0.33475351 250.32312011 -0.33664499 253.71855164 -0.35605907 C257.40309523 -0.3737109 261.08680141 -0.3667036 264.77134514 -0.35352612 C265.84003464 -0.36449536 266.90872414 -0.37546461 268.00979817 -0.38676625 C275.78728674 -0.3195938 281.72849761 1.24341911 287.34832573 6.82599354 C291.16279909 12.88959882 290.07076322 21.16089794 290.01887321 28.0658617 C290.02401497 29.79936422 290.03129819 31.53286151 290.04055595 33.26634693 C290.05904555 37.96273119 290.04614685 42.65854657 290.02646565 47.35490704 C290.01005767 52.2750446 290.01889504 57.19514675 290.02398491 62.11530018 C290.02850346 70.37707047 290.01265079 78.63861418 289.98469353 86.90033436 C289.95264273 96.44519728 289.95265817 105.98965159 289.9699083 115.53454351 C289.98578488 124.72522595 289.97903253 133.91575891 289.96197128 143.10643482 C289.9551077 147.01379353 289.95612613 150.92103218 289.96351624 154.82838917 C289.97119051 159.43159551 289.95901571 164.03433814 289.93166733 168.63746548 C289.92479439 170.32447718 289.92467383 172.01153229 289.93188286 173.69854259 C289.94060603 176.00618811 289.9245753 178.31241186 289.9024334 180.61993885 C289.89962647 181.90965343 289.89681955 183.19936802 289.89392757 184.52816486 C289.20318728 189.44925461 287.43216479 193.47626652 283.4658947 196.69281483 C281.77318637 197.50661691 280.08047803 198.32041899 278.3877697 199.13422108 C277.7277697 198.47422108 277.0677697 197.81422108 276.3877697 197.13422108 C278.08047803 196.35297108 279.77318637 195.57172108 281.4658947 194.79047108 C285.63603611 191.19669067 287.18006656 187.03610714 287.76350403 181.6937151 C287.91615671 177.34307914 287.94054931 173.00823082 287.92121696 168.65570545 C287.92828164 166.98279022 287.93702896 165.30988138 287.94732475 163.63698292 C287.96976541 159.11009899 287.96689177 154.58356556 287.95800328 150.0566473 C287.95288223 146.27182104 287.9601949 142.48706 287.96747535 138.70224047 C287.98445698 129.77179415 287.98092548 120.84151878 287.96418571 111.91107655 C287.94725893 102.70869033 287.96311047 93.50677829 287.99540859 84.30444384 C288.02212492 76.39166083 288.02937519 68.47902525 288.02089351 60.56620169 C288.01597114 55.84537477 288.01814281 51.1248332 288.03868103 46.40404224 C288.05707079 41.96491647 288.05103953 37.52647176 288.02648163 33.08738232 C288.02148449 31.46205641 288.024935 29.83667831 288.03763008 28.21139431 C288.259892 17.35840473 288.259892 17.35840473 284.04526997 7.59786701 C278.20982841 2.44491441 272.29968769 2.71396845 264.92246819 2.77345753 C263.76169632 2.77089425 262.60092445 2.76833098 261.40497768 2.76569003 C258.19175252 2.76160847 254.97889195 2.77096302 251.76570988 2.78602421 C248.29748055 2.79899545 244.82926781 2.79459435 241.36102104 2.79231739 C235.35495426 2.79074534 229.34898535 2.80014736 223.34294319 2.81703091 C214.65926118 2.84142564 205.97562642 2.84922666 197.29191385 2.85299488 C183.20274523 2.85955862 169.11362876 2.87951769 155.02448845 2.90790272 C141.33926975 2.93544529 127.65406521 2.9566779 113.96882439 2.96942616 C113.12508098 2.97021433 112.28133757 2.9710025 111.41202618 2.97181455 C107.17915791 2.9757297 102.94628954 2.97952082 98.71342111 2.98325026 C63.60483347 3.01434376 28.4963064 3.06717745 -6.6122303 3.13422108 C-6.6122303 2.47422108 -6.6122303 1.81422108 -6.6122303 1.13422108 C-4.2014382 -0.07117497 -2.69344937 0.00567747 0 0 Z " fill="#1E1E1E" transform="translate(822.6122303009033,397.86577892303467)"/>
<path d="M0 0 C0.66 0 1.32 0 2 0 C2.09356782 27.66031083 2.16404022 55.32059784 2.20724869 82.98103523 C2.2278471 95.8251386 2.25591572 108.66914346 2.30175781 121.51318359 C2.34170882 132.71202598 2.36745257 143.91079699 2.37635398 155.10970867 C2.3815547 161.03584626 2.39372165 166.96177973 2.42292023 172.88785172 C2.45021986 178.47417113 2.45841568 184.06020376 2.45243073 189.64658356 C2.45352448 191.68866666 2.46139105 193.73076009 2.4768219 195.77278519 C2.61806343 215.44087523 -0.80335726 233.22604462 -15 248 C-24.94428235 256.49035969 -35.14714378 262.22881539 -48 265 C-50.390625 264.60546875 -50.390625 264.60546875 -52 264 C-51.67 263.34 -51.34 262.68 -51 262 C-48.56282748 261.36747429 -46.14998074 260.82423165 -43.6875 260.3125 C-35.87823044 258.53004427 -29.62971423 255.56643824 -23 251 C-21.948125 250.278125 -20.89625 249.55625 -19.8125 248.8125 C-7.74178722 236.74178722 -0.88416096 222.27740998 -0.71566427 205.16048658 C-0.717599 204.36473395 -0.71953374 203.56898133 -0.7215271 202.74911499 C-0.7157347 201.87485764 -0.7099423 201.00060029 -0.70397437 200.0998503 C-0.68711157 197.20113119 -0.68410979 194.3025726 -0.68115234 191.40380859 C-0.67184468 189.31368628 -0.66167477 187.22356765 -0.65071106 185.13345337 C-0.62349153 179.48134104 -0.60828553 173.82925354 -0.59528303 168.17709303 C-0.57961722 162.26204564 -0.55283802 156.34704865 -0.5272522 150.43203735 C-0.48052545 139.24094373 -0.4437518 128.04984056 -0.41057932 116.85869944 C-0.37231478 104.11381784 -0.32291597 91.36898694 -0.27259517 78.62414813 C-0.1693661 52.41613637 -0.08007639 26.20809201 0 0 Z " fill="#0B0B0B" transform="translate(1145,402)"/>
<path d="M0 0 C0.80747177 -0.00540298 1.61494354 -0.01080597 2.44688416 -0.01637268 C5.09786416 -0.02880958 7.74774721 -0.01240162 10.39868164 0.00561523 C12.25281328 0.00546011 14.10694524 0.00396897 15.96107483 0.00120544 C19.84040728 -0.00017635 23.71936904 0.01234143 27.59863281 0.03515625 C32.55602954 0.06352025 37.51280984 0.06080595 42.47025204 0.04806614 C46.29742133 0.04108994 50.12444973 0.04892071 53.95160103 0.06132317 C55.77872743 0.06582021 57.60586905 0.06618983 59.43299675 0.06225777 C61.99340349 0.05932694 64.55297982 0.07594163 67.11328125 0.09765625 C67.85898376 0.0931546 68.60468628 0.08865295 69.37298584 0.08401489 C75.30979012 0.16710709 80.91798158 1.29936079 85.64477539 5.15014648 C90.00162037 10.71582706 92.12525828 14.97163694 91.93383789 22.16186523 C91.21060986 27.57703512 88.72202194 31.81723196 84.62133789 35.37670898 C79.3802991 39.08911146 75.81680123 39.80261753 69.3996582 39.80810547 C68.57311737 39.81642899 67.74657654 39.8247525 66.89498901 39.83332825 C64.16309897 39.85741798 61.43144788 39.86619997 58.69946289 39.87280273 C56.7962029 39.88177129 54.89294362 39.89089318 52.98968506 39.90016174 C48.99839567 39.91665251 45.00719016 39.92435176 41.01586914 39.92724609 C35.91362782 39.93262371 30.81218053 39.97027769 25.71016312 40.01599026 C21.77749797 40.045809 17.84502269 40.05297073 13.91225433 40.05397224 C12.03205486 40.05816656 10.15185442 40.07056908 8.27176666 40.09148979 C5.63412544 40.11849877 2.99830692 40.11355068 0.3605957 40.10107422 C-0.79307999 40.12332565 -0.79307999 40.12332565 -1.97006226 40.14602661 C-7.86140697 40.06710469 -11.77792214 38.13956767 -16.37866211 34.50170898 C-21.71097766 28.75921532 -21.84775471 23.64086283 -21.78491211 16.02905273 C-21.19377817 10.89641859 -19.33527068 7.76920178 -15.37866211 4.50170898 C-10.025529 0.92556963 -6.37787881 -0.0824648 0 0 Z M-19.37866211 12.50170898 C-20.96522117 17.26138617 -21.36015648 21.92872608 -19.54272461 26.69311523 C-16.62937634 31.84524455 -12.9843069 35.37343888 -7.37866211 37.50170898 C-1.16121391 38.25087996 5.02295219 38.18190089 11.27758789 38.13061523 C13.1078709 38.13144491 14.93815383 38.13390799 16.76843262 38.13792419 C20.59479335 38.14077501 24.42056641 38.12615139 28.24682617 38.09863281 C33.13595594 38.06455123 38.02403559 38.07057506 42.91321564 38.08929539 C46.68980565 38.09989585 50.46615398 38.09089996 54.24272156 38.07591057 C56.04472637 38.07075063 57.84675665 38.07118381 59.64875793 38.07745552 C62.17336746 38.08294481 64.69650572 38.0624159 67.22094727 38.03515625 C67.955728 38.04168213 68.69050873 38.04820801 69.44755554 38.05493164 C74.88007333 37.95587064 79.06252622 36.47599659 83.62133789 33.50170898 C87.41612622 29.50719495 89.90443774 25.71273782 89.93383789 20.12670898 C89.79787343 15.24798426 88.75938694 11.65772483 85.22680664 8.09545898 C79.70025165 3.28245919 75.80376904 2.20163973 68.58325195 2.1953125 C67.77621826 2.18698898 66.96918457 2.17866547 66.13769531 2.17008972 C63.47073532 2.14600346 60.80402011 2.1372184 58.13696289 2.13061523 C56.27854337 2.12164635 54.42012459 2.11252446 52.56170654 2.10325623 C48.66457364 2.08676636 44.76752663 2.07906638 40.87036133 2.07617188 C35.88918003 2.0707946 30.90881219 2.03314178 25.92786026 1.98742771 C22.08784072 1.95760452 18.24801558 1.95044714 14.40789032 1.94944572 C12.57234734 1.94525222 10.73680331 1.93285297 8.90137482 1.91192818 C6.32598588 1.88490989 3.75246276 1.88986982 1.17700195 1.90234375 C0.05137848 1.88009232 0.05137848 1.88009232 -1.09698486 1.85739136 C-8.97963669 1.96548515 -15.0605576 5.93819013 -19.37866211 12.50170898 Z " fill="#000000" transform="translate(924.378662109375,351.498291015625)"/>
<path d="M0 0 C0.99 0.33 1.98 0.66 3 1 C2.236875 1.556875 1.47375 2.11375 0.6875 2.6875 C-3.05646734 5.90905329 -4.81417033 8.35873975 -5.37752342 13.33431244 C-5.3786545 14.61371956 -5.37978558 15.89312668 -5.38095093 17.21130371 C-5.3856309 17.92666967 -5.39031087 18.64203563 -5.39513266 19.37907934 C-5.40707614 21.7704876 -5.39762827 24.1613221 -5.38818359 26.55273438 C-5.39224959 28.2694787 -5.39759163 29.9862204 -5.40411377 31.70295715 C-5.41778982 36.36200439 -5.41248752 41.02085231 -5.40297651 45.67990303 C-5.39538143 50.55560976 -5.40242511 55.43129943 -5.40713501 60.30700684 C-5.412593 68.49490421 -5.4053998 76.68272041 -5.39111328 84.87060547 C-5.37478669 94.33701696 -5.38007517 103.80323461 -5.3965925 113.2696414 C-5.41020612 121.39715849 -5.41212763 129.52461723 -5.40427649 137.65214205 C-5.3995993 142.50642353 -5.39897642 147.3606139 -5.40888596 152.21488953 C-5.41755152 156.77857729 -5.41154121 161.34201512 -5.39420319 165.90567589 C-5.39023615 167.5806353 -5.3913761 169.25561574 -5.39799118 170.93056679 C-5.40618837 173.21689398 -5.3959079 175.50242014 -5.38095093 177.78869629 C-5.37981985 179.06810341 -5.37868877 180.34751053 -5.37752342 181.66568756 C-4.81417033 186.64126025 -3.05646734 189.09094671 0.6875 192.3125 C1.450625 192.869375 2.21375 193.42625 3 194 C2.67 194.99 2.34 195.98 2 197 C0.69842597 195.94966002 -0.59088725 194.88411722 -1.875 193.8125 C-2.95394531 192.92498047 -2.95394531 192.92498047 -4.0546875 192.01953125 C-8.11863893 187.80052946 -8.25362308 183.4337494 -8.27415466 177.76419067 C-8.27939134 177.04615229 -8.28462802 176.32811392 -8.29002339 175.5883168 C-8.30499726 173.18789014 -8.30572795 170.78767714 -8.30639648 168.38720703 C-8.31401967 166.6638554 -8.32244744 164.94050717 -8.33161926 163.21716309 C-8.35355386 158.53944581 -8.36236162 153.8617939 -8.36744571 149.18403101 C-8.37109011 146.26072954 -8.37733058 143.33744518 -8.3844471 140.41415024 C-8.40893674 130.21342975 -8.42199271 120.0127601 -8.42553711 109.81201172 C-8.42917333 100.30693922 -8.45907613 90.80218943 -8.50094169 81.29721558 C-8.53563916 73.1331551 -8.55108545 64.96920162 -8.55178314 56.8050679 C-8.55257606 51.93049906 -8.56132163 47.05625909 -8.58978081 42.18176651 C-8.61595257 37.59663758 -8.61817174 33.01211044 -8.60212517 28.42694092 C-8.60031004 26.74635379 -8.60700726 25.06573212 -8.62294388 23.38521957 C-8.75003265 9.11101569 -8.75003265 9.11101569 -5.65003967 4.57052612 C-3 2 -3 2 0 0 Z " fill="#3E3E3E" transform="translate(814,400)"/>
<path d="M0 0 C7.18329463 3.97293622 12.16509994 9.70470075 14.6875 17.5625 C15.72785076 26.53141864 15.13555884 34.17530157 9.6875 41.5625 C4.18832662 47.75346705 -1.40174442 51.04527249 -9.61328125 51.91015625 C-18.75235745 52.29299618 -24.56360433 50.92107548 -31.30859375 44.73046875 C-37.03360271 38.69599985 -39.37956297 33.08414439 -39.875 24.8125 C-39.64972183 17.07468462 -36.81809033 10.15307434 -31.37890625 4.58203125 C-29.42558906 3.03993873 -27.48206721 1.77728714 -25.3125 0.5625 C-24.24 -0.05625 -23.1675 -0.675 -22.0625 -1.3125 C-14.24288165 -3.6583855 -7.47311898 -3.37133187 0 0 Z M-30.3125 6.5625 C-36.17116414 13.84946149 -38.139959 20.25748934 -37.3125 29.5625 C-35.81641993 36.86446878 -31.39541496 42.77263872 -25.27734375 46.953125 C-18.07032717 50.66781231 -10.26109452 50.68126845 -2.5625 48.5 C4.27009241 44.42672375 10.6040319 39.54912771 12.6875 31.5625 C13.81348332 23.29541197 13.38289333 16.62306138 8.5234375 9.6875 C2.76023502 3.01689969 -3.00681013 0.20923742 -11.75 -0.6875 C-18.95990864 0.01590572 -25.0306495 1.3310729 -30.3125 6.5625 Z " fill="#242424" transform="translate(1055.3125,607.4375)"/>
<path d="M0 0 C6.74919642 3.74169081 10.65386438 8.58364769 14.125 15.375 C15.88274963 25.33558122 14.92065449 33.01433914 9.4375 41.49609375 C4.82554978 47.58858481 -1.16941422 50.97809684 -8.71875 52.04296875 C-17.76368289 52.40673236 -24.54842629 50.79422456 -31.375 44.73046875 C-38.27483632 37.44251664 -39.91673658 30.61827909 -39.6640625 20.68359375 C-38.87646443 13.69147315 -35.17078955 8.53377303 -30.3125 3.5625 C-20.76942425 -3.10668397 -10.77482839 -4.88657418 0 0 Z M-26.3125 3.5625 C-27.199375 4.14 -28.08625 4.7175 -29 5.3125 C-34.43821379 10.60373504 -37.43009964 16.53168934 -37.6875 24.125 C-37.59688946 31.62755307 -35.44589784 37.09452991 -30.41015625 42.66796875 C-23.81888487 48.80379719 -18.09344523 50.00191987 -9.20703125 49.8046875 C-1.58475213 49.16692595 3.52603375 44.8404779 8.6875 39.5625 C13.3019785 33.16177176 13.40776927 26.24866116 12.6875 18.5625 C10.31734136 11.05904441 5.44623295 5.48256511 -1.3125 1.5625 C-9.73303819 -2.35402939 -18.68802177 -1.46232776 -26.3125 3.5625 Z " fill="#1C1C1C" transform="translate(887.3125,607.4375)"/>
<path d="M0 0 C3.34856435 -0.38269307 4.74524277 -0.16377251 7.625 1.6875 C11.05559925 5.02782032 12.83316121 7.5260397 13.38031673 12.35996056 C13.38274663 13.65151873 13.38517653 14.9430769 13.38768005 16.27377319 C13.39306559 16.99589512 13.39845113 17.71801706 13.40399987 18.46202147 C13.41828205 20.8763854 13.41117527 23.29020125 13.40405273 25.70458984 C13.40975623 27.4377944 13.41672041 29.17099519 13.42485046 30.90419006 C13.44280064 35.60881352 13.44160983 40.31325065 13.43590808 45.01789808 C13.43281849 48.94680679 13.43890622 52.87567959 13.44494683 56.80458319 C13.45899695 66.07483061 13.45742709 75.34498588 13.44604492 84.61523438 C13.43456678 94.17480387 13.44863315 103.73409273 13.4754414 113.29362524 C13.49760409 121.5044033 13.50423438 129.7150933 13.49836498 137.92589915 C13.49499514 142.82834696 13.49741218 147.73061493 13.51461601 152.63303757 C13.5300918 157.24438815 13.52612258 161.85532342 13.50731087 166.46665764 C13.50362655 168.15690596 13.50672891 169.84718509 13.51719666 171.53740501 C13.53041993 173.84950002 13.51884884 176.16022284 13.50120544 178.47225952 C13.50099616 179.76457174 13.50078688 181.05688396 13.50057125 182.38835716 C12.81767655 187.31547147 11.04853541 191.33868775 7.078125 194.55859375 C5.38541667 195.37239583 3.69270833 196.18619792 2 197 C1.34 196.34 0.68 195.68 0 195 C1.69270833 194.21875 3.38541667 193.4375 5.078125 192.65625 C9.24826641 189.0624696 10.79229686 184.90188606 11.37573433 179.55949402 C11.52838701 175.20885807 11.55277961 170.87400975 11.53344727 166.52148438 C11.54051194 164.84856914 11.54925926 163.17566031 11.55955505 161.50276184 C11.58199571 156.97587791 11.57912208 152.44934449 11.57023358 147.92242622 C11.56511253 144.13759997 11.5724252 140.35283893 11.57970566 136.56801939 C11.59668729 127.63757307 11.59315578 118.7072977 11.57641602 109.77685547 C11.55948923 100.57446925 11.57534078 91.37255721 11.6076389 82.17022276 C11.63435522 74.25743976 11.64160549 66.34480418 11.63312382 58.43198061 C11.62820144 53.71115369 11.63037311 48.99061212 11.65091133 44.26982117 C11.66930109 39.83069539 11.66326983 35.39225068 11.63871193 30.95316124 C11.63371479 29.32783534 11.6371653 27.70245724 11.64986038 26.07717323 C11.87270329 15.11520829 11.87270329 15.11520829 7.3950491 5.36598969 C5.20978065 3.22624122 2.83955384 2.05657817 0 1 C0 0.67 0 0.34 0 0 Z " fill="#010101" transform="translate(1099,400)"/>
<path d="M0 0 C-0.33 0.66 -0.66 1.32 -1 2 C-2.90376143 2.35022026 -4.82565983 2.60303235 -6.75 2.8125 C-22.68736631 5.08178545 -35.66167166 12.72083307 -46 25 C-52.78928412 34.3252025 -56.08016121 44.49803612 -57.4765625 55.88671875 C-57.64929688 56.91410156 -57.82203125 57.94148438 -58 59 C-58.99 59.495 -58.99 59.495 -60 60 C-61.08331138 46.66925168 -56.12708393 33.74126931 -47.89453125 23.33984375 C-45.67282449 20.80457425 -43.37716995 18.38946565 -41 16 C-40.39671875 15.36191406 -39.7934375 14.72382813 -39.171875 14.06640625 C-28.82750802 3.96940457 -14.14724026 -0.44911874 0 0 Z " fill="#222222" transform="translate(831,345)"/>
<path d="M0 0 C0.33 0 0.66 0 1 0 C2.16241232 14.53015396 -4.93235586 28.74184527 -13.88671875 39.80078125 C-23.47213314 49.77599068 -35.54985975 56.1000359 -49 59 C-51.390625 58.60546875 -51.390625 58.60546875 -53 58 C-52.67 57.34 -52.34 56.68 -52 56 C-49.56282748 55.36747429 -47.14998074 54.82423165 -44.6875 54.3125 C-36.87823044 52.53004427 -30.62971423 49.56643824 -24 45 C-22.948125 44.278125 -21.89625 43.55625 -20.8125 42.8125 C-9.53048207 31.53048207 -4.26409604 19.3701325 -1.578125 3.95703125 C-1 1 -1 1 0 0 Z " fill="#202020" transform="translate(1146,608)"/>
<path d="M0 0 C1.65320356 3.14931538 2.916129 6.36805011 4.1875 9.6875 C6.66137029 15.64070247 9.71635124 20.21450117 14 25 C14.59554687 25.68835938 15.19109375 26.37671875 15.8046875 27.0859375 C25.68768179 37.78909729 38.82930129 42.84266975 53 45 C53 45.66 53 46.32 53 47 C44.42473409 46.81431511 37.66840626 44.78266814 30 41 C29.1440625 40.57847656 28.288125 40.15695312 27.40625 39.72265625 C13.89330769 32.3461292 3.89977605 19.54856582 -1 5 C-0.625 2.1875 -0.625 2.1875 0 0 Z " fill="#1B1B1B" transform="translate(774,620)"/>
<path d="M0 0 C2.62156088 0.36891902 3.7268804 0.67166754 5.44921875 2.7421875 C6.06216797 3.79792969 6.06216797 3.79792969 6.6875 4.875 C7.31205078 5.92300781 7.31205078 5.92300781 7.94921875 6.9921875 C11.34515279 13.48107261 11.16088478 21.97487612 9.1640625 28.8984375 C5.86612591 36.09192336 0.595009 41.59805258 -6.625 44.9375 C-12.49059198 46.86914073 -18.91199067 46.23086552 -25 46 C-25.33 45.34 -25.66 44.68 -26 44 C-24.49759766 43.94392578 -24.49759766 43.94392578 -22.96484375 43.88671875 C-12.3109623 43.40086963 -4.5483652 42.16493959 3 34 C7.39584628 28.45347631 7.70585994 22.39455423 7.53515625 15.4921875 C6.70578038 10.08005593 4.22234474 6.32026275 1 2 C0.67 1.34 0.34 0.68 0 0 Z " fill="#181818" transform="translate(1060,613)"/>
<path d="M0 0 C0.33 0 0.66 0 1 0 C1.45452566 6.36335928 0.75280914 10.74396479 -3 16 C-9.44510113 22.9903483 -15.35275797 26.10115682 -24.8125 26.5 C-32.98076032 26.31751759 -39.25310944 23.91218439 -45.125 18.1875 C-45.74375 17.465625 -46.3625 16.74375 -47 16 C-46.67 15.01 -46.34 14.02 -46 13 C-45.12988281 13.83144531 -45.12988281 13.83144531 -44.2421875 14.6796875 C-36.86489597 21.5213341 -31.98016861 23.45768564 -21.8984375 23.24609375 C-14.79494867 22.64296734 -9.84581518 18.92133438 -5 14 C-1.71394387 9.80744563 -0.95058545 5.13316145 0 0 Z " fill="#1C1C1C" transform="translate(900,633)"/>
<path d="M0 0 C8.664684 1.74058774 13.97046061 8.87181915 18.88671875 15.70703125 C25.06817559 25.33913498 29.48140367 35.44631203 29 47 C28.34 47 27.68 47 27 47 C26.78085938 45.82824219 26.56171875 44.65648437 26.3359375 43.44921875 C24.48914564 34.09566148 22.44151612 25.9983731 17 18 C16.47535156 17.21367187 15.95070313 16.42734375 15.41015625 15.6171875 C11.5926644 10.31761058 7.15177277 6.4448487 1.94140625 2.53125 C1.30074219 2.0259375 0.66007812 1.520625 0 1 C0 0.67 0 0.34 0 0 Z " fill="#191919" transform="translate(1118,355)"/>
<path d="M0 0 C5.94250924 1.27339484 8.62983067 4.21687149 12 9 C14.53983562 13.3869888 14.66045932 18.05481087 14 23 C12.14220463 28.90061144 9.06344484 32.55685751 4 36 C0.625 37.3125 0.625 37.3125 -2 38 C-2 37.01 -2 36.02 -2 35 C-0.783125 34.505 0.43375 34.01 1.6875 33.5 C6.49576898 31.06597396 9.08219876 28.03422826 11 23 C11.9933971 17.35482995 11.24302532 12.80862374 8 8 C5.61881834 5.77831634 5.61881834 5.77831634 3 4 C2.236875 3.4225 1.47375 2.845 0.6875 2.25 C0.130625 1.8375 -0.42625 1.425 -1 1 C-0.67 0.67 -0.34 0.34 0 0 Z " fill="#1D1D1D" transform="translate(1002,353)"/>
<path d="M0 0 C-1.38076136 2.76152272 -3.02183958 3.05813287 -5.8125 4.3125 C-9.9295195 6.30631373 -12.57467392 7.99293952 -15 12 C-16.58861829 16.76585487 -16.94877732 21.40358988 -15.19921875 26.19140625 C-12.08183821 31.8369717 -7.7688197 34.38580719 -2 37 C-2 37.66 -2 38.32 -2 39 C-7.70977378 38.32826191 -11.50618681 35.65530651 -15.3125 31.4375 C-19.27762001 25.71010443 -18.77028386 18.68813777 -18 12 C-14.99464015 4.96960463 -7.96865497 -0.96589757 0 0 Z " fill="#181818" transform="translate(921,352)"/>
<path d="M0 0 C7.47353626 1.97218318 14.0604091 4.73285192 18.57421875 11.28515625 C21.65810982 16.71952016 23.1303274 20.87955193 23.0625 27.1875 C23.05347656 28.27417969 23.04445313 29.36085938 23.03515625 30.48046875 C23.02355469 31.31191406 23.01195312 32.14335938 23 33 C22.67 33 22.34 33 22 33 C21.85304688 32.02160156 21.70609375 31.04320312 21.5546875 30.03515625 C19.97363547 20.45469018 17.93026785 12.986174 10.0625 6.625 C6.75832107 4.8717622 3.47207429 3.38882972 0 2 C0 1.34 0 0.68 0 0 Z " fill="#212121" transform="translate(879,605)"/>
<path d="M0 0 C8.23789248 4.03047245 8.23789248 4.03047245 9.5859375 6.7265625 C6.62231752 6.29073603 4.53474812 5.69799168 1.8984375 4.2265625 C-4.99594583 1.10457759 -12.08907511 1.50573127 -19.4140625 2.7265625 C-19.7440625 2.0665625 -20.0740625 1.4065625 -20.4140625 0.7265625 C-13.67307671 -2.30749281 -6.95918155 -2.59575879 0 0 Z " fill="#252525" transform="translate(1052.4140625,606.2734375)"/>
<path d="M0 0 C1.60485636 2.47391215 2.0679827 3.59272748 1.57421875 6.55078125 C1.28160156 7.46214844 0.98898437 8.37351562 0.6875 9.3125 C-0.31724199 12.60435204 -1.19389161 15.70119516 -1.5625 19.125 C-1.706875 20.07375 -1.85125 21.0225 -2 22 C-2.66 22.33 -3.32 22.66 -4 23 C-4.67620721 14.67889465 -2.74493505 7.81816322 0 0 Z " fill="#343434" transform="translate(775,382)"/>
<path d="M0 0 C8.7252389 1.70248564 14.12063215 9.13838895 19 16 C18.34 16.66 17.68 17.32 17 18 C16.61070313 17.443125 16.22140625 16.88625 15.8203125 16.3125 C11.76479957 10.7805561 7.42323534 6.64874905 1.94140625 2.53125 C1.30074219 2.0259375 0.66007812 1.520625 0 1 C0 0.67 0 0.34 0 0 Z " fill="#1C1C1C" transform="translate(1118,355)"/>
<path d="M0 0 C1.81792404 1.72702784 3.25201613 3.3640233 4.6875 5.4375 C7.6784765 8.75182531 10.95291808 10.24168043 15 12 C15 12.66 15 13.32 15 14 C9.28707779 13.3278915 5.53189973 10.61252603 1.625 6.5 C0 4 0 4 0 0 Z " fill="#1F1F1F" transform="translate(904,377)"/>
<path d="M0 0 C0.33 0 0.66 0 1 0 C1.45826739 6.41574339 0.5738622 10.6104779 -3 16 C-5.625 19 -5.625 19 -8 21 C-8.66 21 -9.32 21 -10 21 C-8.91611365 18.56125571 -7.78814964 16.74714634 -6.0625 14.6875 C-2.66941524 10.26620774 -0.83246514 5.49426992 0 0 Z " fill="#151515" transform="translate(900,633)"/>
<path d="M0 0 C4.19283118 0.64844086 8.26499921 1.51216646 12.375 2.5625 C13.43460938 2.83191406 14.49421875 3.10132813 15.5859375 3.37890625 C16.38257813 3.58386719 17.17921875 3.78882813 18 4 C18 4.66 18 5.32 18 6 C11.09232563 5.63176001 5.3618858 4.76081837 -1 2 C-0.67 1.34 -0.34 0.68 0 0 Z " fill="#303030" transform="translate(809,661)"/>
<path d="M0 0 C-3.14581646 2.09721098 -5.8408918 3.05667086 -9.4375 4.1875 C-10.57058594 4.55230469 -11.70367188 4.91710937 -12.87109375 5.29296875 C-15.8339997 5.96248932 -17.22004965 6.07236414 -20 5 C-19.67 4.34 -19.34 3.68 -19 3 C-16.37007199 2.16748364 -13.80076831 1.45701115 -11.125 0.8125 C-10.39152344 0.62236328 -9.65804688 0.43222656 -8.90234375 0.23632812 C-3.3799794 -1.1266598 -3.3799794 -1.1266598 0 0 Z " fill="#323232" transform="translate(1113,661)"/>
<path d="M0 0 C0.66 0 1.32 0 2 0 C1.43022551 3.98842143 0.46843288 6.79103726 -2 10 C-4.26506572 11.55376446 -6.54201813 12.74782056 -9 14 C-9.66 13.34 -10.32 12.68 -11 12 C-9.9275 11.505 -8.855 11.01 -7.75 10.5 C-3.33095571 8.02605229 -1.79370863 4.59011153 0 0 Z " fill="#1C1C1C" transform="translate(1110,583)"/>
<path d="M0 0 C0.99 0.33 1.98 0.66 3 1 C2.2575 1.495 1.515 1.99 0.75 2.5 C-2.65862674 5.59875158 -4.18726063 8.82766134 -6 13 C-6.66 12.67 -7.32 12.34 -8 12 C-7.38333367 7.99166884 -5.38003195 5.22004322 -3 2 C-2.01 1.34 -1.02 0.68 0 0 Z " fill="#212121" transform="translate(814,400)"/>
<path d="M0 0 C0.33 0 0.66 0 1 0 C2.46670113 5.22512279 3.22577402 9.5814234 3 15 C2.34 15 1.68 15 1 15 C0.63807496 12.87630763 0.28568253 10.7509887 -0.0625 8.625 C-0.25972656 7.44164062 -0.45695312 6.25828125 -0.66015625 5.0390625 C-1 2 -1 2 0 0 Z " fill="#2E2E2E" transform="translate(1144,387)"/>
<path d="M0 0 C3.36683181 -0.38478078 4.77182671 -0.1432716 7.6875 1.6875 C10.06921206 4.06921206 11.0253952 5.81038428 12 9 C11.01 9.495 11.01 9.495 10 10 C9.46375 9.071875 8.9275 8.14375 8.375 7.1875 C5.82105369 3.75983521 3.90189922 2.5962315 0 1 C0 0.67 0 0.34 0 0 Z " fill="#1F1F1F" transform="translate(1099,400)"/>
<path d="M0 0 C2.65614176 0.36969853 3.74758254 0.70475592 5.51953125 2.77734375 C5.94621094 3.49019531 6.37289063 4.20304688 6.8125 4.9375 C7.25207031 5.64777344 7.69164062 6.35804688 8.14453125 7.08984375 C8.42683594 7.72019531 8.70914062 8.35054687 9 9 C8.67 9.66 8.34 10.32 8 11 C5.64270057 8.80861021 3.97942902 6.56068027 2.3125 3.8125 C1.87550781 3.09707031 1.43851563 2.38164063 0.98828125 1.64453125 C0.66214844 1.10183594 0.33601563 0.55914063 0 0 Z " fill="#1D1D1D" transform="translate(1060,613)"/>
<path d="M0 0 C0.66 0 1.32 0 2 0 C3.32 3.3 4.64 6.6 6 10 C5.34 10.66 4.68 11.32 4 12 C3.3291288 10.3767313 2.66342971 8.75132422 2 7.125 C1.62875 6.22007812 1.2575 5.31515625 0.875 4.3828125 C0 2 0 2 0 0 Z " fill="#272727" transform="translate(848,636)"/>
<path d="M0 0 C0 0.99 0 1.98 0 3 C-2.64 3.33 -5.28 3.66 -8 4 C-8.33 3.34 -8.66 2.68 -9 2 C-5.62902617 0.50178941 -3.79557881 0 0 0 Z " fill="#3B3B3B" transform="translate(1041,605)"/>
<path d="M0 0 C2.31 1.98 4.62 3.96 7 6 C6.34 6.66 5.68 7.32 5 8 C2.5 5.6875 2.5 5.6875 0 3 C0 2.01 0 1.02 0 0 Z " fill="#161616" transform="translate(853,646)"/>
<path d="M0 0 C2.97 0.99 5.94 1.98 9 3 C8.34 3.66 7.68 4.32 7 5 C4.69 4.01 2.38 3.02 0 2 C0 1.34 0 0.68 0 0 Z " fill="#2B2B2B" transform="translate(879,605)"/>
<path d="M0 0 C2.49361571 1.20381448 4.68143083 2.45428722 7 4 C6.67 4.99 6.34 5.98 6 7 C3.95880212 5.38405168 1.95927063 3.7143618 0 2 C0 1.34 0 0.68 0 0 Z " fill="#242424" transform="translate(810,590)"/>
<path d="M0 0 C-2.62198774 2.15377564 -4.64404172 3.40072174 -8 4 C-8 3.01 -8 2.02 -8 1 C-3.375 -1.125 -3.375 -1.125 0 0 Z " fill="#242424" transform="translate(1008,387)"/>
<path d="M0 0 C1.64826111 2.96687001 2.44271087 5.65626525 3 9 C2.01 9.495 2.01 9.495 1 10 C-0.83691257 6.21812119 -1.15837626 4.05431692 0 0 Z " fill="#303030" transform="translate(774,620)"/>
<path d="M0 0 C-2.38573379 1.89213369 -4.07175348 3.02391783 -7 4 C-7.99 3.34 -8.98 2.68 -10 2 C-3.375 -1.125 -3.375 -1.125 0 0 Z " fill="#2C2C2C" transform="translate(1059,654)"/>
<path d="M0 0 C-1 3 -1 3 -3.375 4.3125 C-4.24125 4.539375 -5.1075 4.76625 -6 5 C-6.99 4.34 -7.98 3.68 -9 3 C-2.25 0 -2.25 0 0 0 Z " fill="#272727" transform="translate(890,653)"/>
</svg>
