<?xml version="1.0" encoding="iso-8859-1"?>
<!-- Uploaded to: SVG Repo, www.svgrepo.com, Generator: SVG Repo Mixer Tools -->
<svg fill="#000000" height="25px" width="25
px" version="1.1" id="Layer_1" xmlns="http://www.w3.org/2000/svg" xmlns:xlink="http://www.w3.org/1999/xlink"
	 viewBox="0 0 512.001 512.001" xml:space="preserve">
<g>
	<g>
		<path d="M495.296,0.331H250.44c-11.381,0-19.439,11.169-15.838,21.974l21.403,64.209v91.893h-66.779v-33.389h16.695
			c9.22,0,16.695-7.475,16.695-16.695s-7.475-16.695-16.695-16.695c-14.248,0-119.318,0-133.558,0
			c-9.22,0-16.695,7.475-16.695,16.695s7.475,16.695,16.695,16.695h16.695v35.069c-38.055,7.755-66.779,41.482-66.779,81.794
			c0,26.496,12.423,50.13,31.734,65.432L2.119,420.72c-6.172,11.109,1.878,24.802,14.593,24.802h72.004
			c0.342,36.531,30.153,66.149,66.763,66.149s66.422-29.617,66.763-66.149h100.201c0.342,36.531,30.153,66.149,66.763,66.149
			c36.61,0,66.422-29.617,66.763-66.149h17.066c9.22,0,16.695-7.475,16.695-16.695c0-13.333,0-317.995,0-342.314l21.403-64.209
			C514.732,11.508,506.686,0.331,495.296,0.331z M122.445,145.017h33.389v33.389h-33.389V145.017z M105.751,211.796
			c4.709,0,145.281,0,150.252,0v100.168H105.751c-27.616,0-50.084-22.468-50.084-50.084
			C55.667,234.264,78.134,211.796,105.751,211.796z M155.48,478.281c-18.411,0-33.389-14.979-33.389-33.389
			c0-18.411,14.979-33.389,33.389-33.389c18.411,0,33.389,14.979,33.389,33.389C188.869,463.303,173.891,478.281,155.48,478.281z
			 M389.206,478.281c-18.411,0-33.389-14.979-33.389-33.389c0-18.411,14.979-33.389,33.389-33.389
			c18.411,0,33.389,14.979,33.389,33.389C422.595,463.303,407.617,478.281,389.206,478.281z M456.34,412.132h-8.976
			c-11.473-20.287-33.236-34.019-58.158-34.019s-46.685,13.733-58.158,34.019H213.638c-11.473-20.287-33.236-34.019-58.158-34.019
			c-24.922,0-46.685,13.733-58.158,34.019H45.086l37.099-66.779c7.224,0,333.358,0,374.155,0V412.132z M289.393,311.964
			c0-7.74,0-206.6,0-211.466H456.34v211.466H289.393z M461.002,67.108H284.731l-11.13-33.389h198.53L461.002,67.108z"/>
	</g>
</g>
<g>
	<g>
		<path d="M406.256,133.887h-66.779c-9.22,0-16.695,7.475-16.695,16.695v66.779c0,9.22,7.475,16.695,16.695,16.695h66.779
			c9.22,0,16.695-7.475,16.695-16.695v-66.779C422.95,141.362,415.475,133.887,406.256,133.887z M389.561,200.666h-33.389v-33.389
			h33.389V200.666z"/>
	</g>
</g>
<g>
	<g>
		<path d="M172.53,245.185h-66.779c-9.22,0-16.695,7.475-16.695,16.695s7.475,16.695,16.695,16.695h66.779
			c9.22,0,16.695-7.475,16.695-16.695S181.749,245.185,172.53,245.185z"/>
	</g>
</g>
</svg>