<svg version="1.0" xmlns="http://www.w3.org/2000/svg"
 width="25px" height="25px" viewBox="0 0 512.000000 512.000000"
 preserveAspectRatio="xMidYMid meet">

<g transform="translate(0.000000,512.000000) scale(0.100000,-0.100000)"
fill="#CCCCCC" stroke="none">
<path d="M1223 4942 c-117 -42 -170 -119 -180 -265 l-6 -87 -142 0 c-126 0
-146 -2 -166 -19 l-24 -19 -3 -1967 -2 -1966 29 -30 29 -29 678 0 677 0 -7
-37 c-14 -83 -27 -259 -21 -289 3 -18 17 -42 32 -54 26 -20 33 -20 1135 -20
l1110 0 30 31 31 30 -7 110 c-12 197 -50 341 -133 502 -123 238 -323 425 -569
532 l-73 32 63 41 c169 111 301 288 352 471 10 34 23 61 29 61 6 0 22 11 34
24 23 24 23 27 19 223 -4 183 -7 204 -32 283 -74 225 -204 391 -400 511 l-86
52 0 744 0 744 -25 24 c-23 24 -29 25 -168 25 l-145 0 -4 88 c-6 123 -50 197
-148 248 -51 27 -162 25 -216 -3 -97 -51 -137 -121 -142 -245 l-4 -88 -604 0
-604 0 0 63 c0 34 -5 79 -10 99 -39 140 -195 226 -327 180z m1868 -171 l29
-29 0 -217 0 -217 -29 -29 c-41 -40 -91 -40 -132 0 l-29 29 0 214 c0 180 3
217 16 236 34 50 102 55 145 13z m-1742 5 c45 -24 51 -51 51 -252 0 -240 -13
-274 -105 -274 -44 0 -81 33 -90 81 -3 19 -5 117 -3 217 l3 184 33 29 c36 32
69 36 111 15z m2111 -1339 l0 -323 -72 12 c-262 46 -542 -39 -740 -225 -126
-118 -198 -232 -254 -401 -25 -78 -28 -100 -32 -281 -4 -210 0 -234 42 -245
18 -4 27 -18 40 -67 52 -185 206 -386 373 -484 l44 -26 -101 -48 c-55 -26
-133 -70 -172 -96 -152 -102 -320 -300 -393 -465 l-30 -67 -652 -1 -653 0 0
1520 0 1520 1300 0 1300 0 0 -323z m-25 -481 c33 -9 96 -34 140 -56 250 -123
405 -370 405 -646 l0 -94 -42 46 c-73 79 -132 97 -355 109 -211 10 -365 53
-524 145 -48 28 -91 50 -97 50 -32 0 -64 -28 -93 -84 -49 -94 -86 -144 -163
-223 l-69 -73 -59 0 -58 0 0 108 c0 129 22 226 73 328 107 212 286 351 517
400 80 17 241 12 325 -10z m-248 -732 c109 -37 248 -61 388 -69 170 -9 219
-20 249 -56 14 -16 28 -45 32 -65 3 -19 16 -42 29 -52 l22 -17 -18 -53 c-31
-91 -79 -164 -163 -248 -132 -132 -290 -197 -476 -197 -115 0 -197 19 -306 73
-139 68 -268 207 -324 350 -30 76 -28 80 32 80 l52 0 106 108 c58 59 123 135
144 169 l38 62 59 -29 c32 -17 93 -42 136 -56z m273 -921 c219 -44 434 -177
575 -356 130 -164 198 -335 220 -559 l7 -68 -1012 0 -1011 0 6 53 c3 28 8 72
11 97 17 150 105 348 212 480 239 296 615 430 992 353z"/>
<path d="M1154 3500 c-28 -11 -54 -48 -54 -76 0 -12 9 -33 21 -48 l20 -26 330
0 c192 0 338 4 348 10 31 16 45 64 29 96 -24 52 -38 54 -368 53 -168 0 -315
-4 -326 -9z"/>
<path d="M1143 3130 c-47 -19 -57 -87 -18 -125 l24 -25 556 0 556 0 24 25 c33
32 33 78 0 110 l-24 25 -548 -1 c-301 0 -558 -4 -570 -9z"/>
<path d="M1125 2745 c-40 -40 -30 -96 22 -123 30 -16 931 -17 966 -1 49 22 61
86 22 124 l-24 25 -481 0 -481 0 -24 -25z"/>
<path d="M1154 2400 c-28 -11 -54 -48 -54 -76 0 -12 9 -33 21 -48 l20 -26 334
0 c310 0 334 1 356 19 31 25 32 83 1 114 -22 22 -26 22 -340 24 -174 1 -327
-2 -338 -7z"/>
<path d="M1125 1835 l-25 -24 0 -405 0 -405 24 -28 24 -28 424 -3 c293 -2 435
0 461 8 66 19 67 28 67 447 0 379 -5 434 -40 453 -12 6 -183 10 -465 10 l-446
0 -24 -25z m813 -432 l-3 -298 -337 -3 -338 -2 0 300 0 300 340 0 340 0 -2
-297z"/>
<path d="M3285 919 c-43 -24 -45 -35 -45 -241 0 -198 0 -199 25 -223 l24 -25
296 0 296 0 24 25 c25 24 25 25 25 223 0 182 -2 202 -19 223 l-19 24 -294 2
c-201 2 -299 -1 -313 -8z m485 -239 l0 -90 -185 0 -185 0 0 90 0 90 185 0 185
0 0 -90z"/>
</g>
</svg>
