<svg version="1.0" xmlns="http://www.w3.org/2000/svg"
 width="25px" height="25px" viewBox="0 0 512.000000 512.000000"
 preserveAspectRatio="xMidYMid meet">

<g transform="translate(0.000000,512.000000) scale(0.100000,-0.100000)"
fill="#CCCCCC" stroke="none">
<path d="M800 4947 c-49 -16 -133 -102 -148 -153 -9 -32 -12 -495 -12 -2017
l0 -1976 -189 -3 c-207 -3 -216 -6 -265 -72 -19 -25 -21 -42 -21 -179 0 -146
1 -154 27 -203 40 -76 70 -107 140 -145 l63 -34 1403 -3 1402 -2 0 80 0 80
-1388 2 -1389 3 -37 29 c-53 40 -66 78 -66 191 l0 95 911 0 910 0 37 -29 c20
-16 52 -34 71 -40 23 -7 187 -11 515 -11 l481 -1 174 -219 c96 -121 178 -220
181 -220 3 0 85 99 181 220 l174 219 399 1 c282 0 411 4 440 12 55 16 138 99
154 154 17 59 17 1849 0 1906 -6 22 -31 62 -55 88 -61 68 -102 80 -275 80
l-138 0 0 599 0 600 189 3 c207 3 216 6 265 72 20 26 21 40 21 339 l0 312 -34
63 c-38 70 -69 100 -145 140 l-51 27 -1945 2 c-1401 1 -1955 -2 -1980 -10z
m3555 -164 c-35 -84 -35 -89 -35 -1045 l0 -938 -1016 0 c-769 0 -1027 -3
-1058 -12 -55 -16 -138 -99 -154 -154 -9 -31 -12 -263 -12 -938 l0 -896 -640
0 -640 0 0 1975 0 1976 25 24 24 25 1757 0 c1669 0 1756 -1 1749 -17z m373
-10 c14 -10 35 -32 46 -47 20 -26 21 -43 24 -297 l3 -269 -161 0 -160 0 0 254
c0 156 4 266 11 283 14 37 47 72 84 89 40 19 119 12 153 -13z m47 -2158 l25
-24 0 -911 0 -911 -25 -24 -24 -25 -435 0 -434 0 -139 -175 c-76 -95 -140
-174 -143 -174 -3 0 -67 79 -143 174 l-139 175 -514 0 -515 0 -24 25 -25 24 0
911 0 911 25 24 24 25 1231 0 1231 0 24 -25z"/>
<path d="M3210 4546 c-279 -60 -505 -251 -598 -508 -108 -300 -39 -620 184
-842 359 -359 956 -296 1234 131 89 136 125 259 125 433 0 174 -36 298 -124
432 -113 173 -274 288 -481 345 -78 21 -260 26 -340 9z m70 -449 l0 -293 -251
-157 -250 -157 -16 37 c-70 168 -50 393 49 561 42 72 148 178 220 220 64 38
179 81 221 81 l27 1 0 -293z m261 277 c266 -78 459 -336 459 -614 0 -72 -20
-175 -44 -232 l-16 -37 -250 157 -250 156 0 293 0 293 23 0 c13 0 48 -7 78
-16z m57 -855 c125 -78 234 -148 242 -156 13 -13 8 -22 -48 -73 -193 -179
-478 -219 -717 -101 -90 45 -217 152 -200 169 18 19 470 301 483 301 7 1 115
-63 240 -140z"/>
<path d="M960 4400 l0 -80 480 0 480 0 0 80 0 80 -480 0 -480 0 0 -80z"/>
<path d="M2080 3680 l0 -560 -80 0 -80 0 0 440 0 440 -80 0 -80 0 0 -440 0
-440 -80 0 -80 0 0 320 0 320 -80 0 -80 0 0 -320 0 -320 -80 0 -80 0 0 200 0
200 -80 0 -80 0 0 -200 0 -200 -80 0 -80 0 0 -80 0 -80 720 0 720 0 0 80 0 80
-80 0 -80 0 0 560 0 560 -80 0 -80 0 0 -560z"/>
<path d="M960 2640 l0 -80 80 0 80 0 0 80 0 80 -80 0 -80 0 0 -80z"/>
<path d="M1280 2640 l0 -80 320 0 320 0 0 80 0 80 -320 0 -320 0 0 -80z"/>
<path d="M960 2160 l0 -80 80 0 80 0 0 80 0 80 -80 0 -80 0 0 -80z"/>
<path d="M1280 2160 l0 -80 320 0 320 0 0 80 0 80 -320 0 -320 0 0 -80z"/>
<path d="M960 1680 l0 -80 80 0 80 0 0 80 0 80 -80 0 -80 0 0 -80z"/>
<path d="M1280 1680 l0 -80 320 0 320 0 0 80 0 80 -320 0 -320 0 0 -80z"/>
<path d="M960 1200 l0 -80 80 0 80 0 0 80 0 80 -80 0 -80 0 0 -80z"/>
<path d="M1280 1200 l0 -80 320 0 320 0 0 80 0 80 -320 0 -320 0 0 -80z"/>
<path d="M2639 2447 c-69 -26 -119 -77 -144 -148 -28 -78 -13 -201 29 -248 15
-16 14 -19 -18 -42 -95 -68 -106 -107 -106 -389 l0 -227 40 -32 40 -32 0 -224
0 -225 240 0 240 0 0 224 0 224 40 32 40 32 0 228 c0 282 -11 321 -106 389
-32 23 -33 26 -18 42 43 47 57 169 29 250 -17 49 -71 111 -119 136 -41 21
-142 27 -187 10z m136 -172 c19 -18 25 -35 25 -65 0 -52 -13 -76 -50 -95 -27
-14 -33 -14 -60 0 -37 19 -50 43 -50 95 0 51 34 90 80 90 19 0 40 -9 55 -25z
m32 -380 c28 -13 56 -32 62 -43 7 -13 11 -91 11 -203 l0 -182 -40 -34 -40 -35
0 -179 0 -179 -80 0 -80 0 0 179 0 179 -40 35 -40 34 0 185 c0 215 -1 213 95
252 64 27 71 26 152 -9z"/>
<path d="M3439 2447 c-69 -26 -119 -77 -144 -148 -28 -78 -13 -201 29 -248 15
-16 14 -19 -18 -42 -95 -68 -106 -107 -106 -389 l0 -227 40 -32 40 -32 0 -224
0 -225 240 0 240 0 0 224 0 224 40 32 40 32 0 228 c0 282 -11 321 -106 389
-32 23 -33 26 -18 42 43 47 57 169 29 250 -17 49 -71 111 -119 136 -41 21
-142 27 -187 10z m136 -172 c19 -18 25 -35 25 -65 0 -52 -13 -76 -50 -95 -27
-14 -33 -14 -60 0 -37 19 -50 43 -50 95 0 51 34 90 80 90 19 0 40 -9 55 -25z
m32 -380 c28 -13 56 -32 62 -43 7 -13 11 -91 11 -203 l0 -182 -40 -34 -40 -35
0 -179 0 -179 -80 0 -80 0 0 179 0 179 -40 35 -40 34 0 185 c0 215 -1 213 95
252 64 27 71 26 152 -9z"/>
<path d="M4239 2447 c-69 -26 -119 -77 -144 -148 -28 -78 -13 -201 29 -248 15
-16 14 -19 -18 -42 -95 -68 -106 -107 -106 -389 l0 -227 40 -32 40 -32 0 -224
0 -225 240 0 240 0 0 224 0 224 40 32 40 32 0 228 c0 282 -11 321 -106 389
-32 23 -33 26 -18 42 43 47 57 169 29 250 -17 49 -71 111 -119 136 -41 21
-142 27 -187 10z m136 -172 c19 -18 25 -35 25 -65 0 -52 -13 -76 -50 -95 -27
-14 -33 -14 -60 0 -37 19 -50 43 -50 95 0 51 34 90 80 90 19 0 40 -9 55 -25z
m32 -380 c28 -13 56 -32 62 -43 7 -13 11 -91 11 -203 l0 -182 -40 -34 -40 -35
0 -179 0 -179 -80 0 -80 0 0 179 0 179 -40 35 -40 34 0 185 c0 215 -1 213 95
252 64 27 71 26 152 -9z"/>
</g>
</svg>
