<?xml version="1.0" standalone="no"?>
<!DOCTYPE svg PUBLIC "-//W3C//DTD SVG 20010904//EN"
 "http://www.w3.org/TR/2001/REC-SVG-20010904/DTD/svg10.dtd">
<svg version="1.0" xmlns="http://www.w3.org/2000/svg"
 width="25px" height="25px" viewBox="0 0 512.000000 512.000000"
 preserveAspectRatio="xMidYMid meet">

<g transform="translate(0.000000,512.000000) scale(0.100000,-0.100000)"
fill="#CCCCCC" stroke="none">
<path d="M1855 4179 c-267 -41 -486 -228 -565 -484 -30 -96 -37 -247 -16 -345
25 -122 95 -249 185 -340 134 -135 278 -200 461 -207 174 -8 304 31 447 133
118 84 218 233 259 384 27 98 24 264 -5 360 -38 126 -86 206 -181 301 -127
128 -266 191 -447 203 -43 2 -105 0 -138 -5z"/>
<path d="M3389 2984 c-9 -11 -16 -54 -19 -122 l-5 -104 -60 -22 c-83 -30 -180
-86 -243 -140 -30 -25 -56 -46 -58 -46 -3 0 -41 21 -85 46 -87 50 -121 57
-149 28 -35 -38 -160 -267 -160 -295 0 -35 13 -48 106 -101 72 -41 75 -44 70
-73 -15 -76 -18 -249 -6 -322 7 -42 8 -79 4 -80 -5 -2 -45 -24 -89 -51 -109
-64 -109 -72 -14 -240 40 -70 79 -135 87 -144 24 -29 64 -21 148 27 44 25 84
45 90 45 6 0 21 -11 34 -25 50 -53 200 -139 288 -166 l42 -12 0 -104 c0 -147
-6 -143 210 -143 216 0 210 -4 210 143 l0 102 68 24 c83 29 182 86 244 140 25
23 50 41 56 41 5 0 45 -20 88 -45 85 -48 122 -55 146 -27 19 23 144 240 156
273 16 40 -4 66 -93 118 l-80 47 5 50 c8 77 6 284 -3 334 l-8 45 84 49 c97 56
116 81 93 127 -33 67 -148 258 -162 269 -25 22 -59 13 -143 -35 -71 -41 -84
-45 -99 -34 -9 8 -37 30 -62 50 -58 47 -147 97 -224 125 l-61 22 -5 104 c-3
68 -10 111 -19 122 -12 14 -38 16 -191 16 -153 0 -179 -2 -191 -16z m336 -716
c67 -35 122 -91 154 -158 35 -74 37 -200 4 -272 -30 -66 -96 -133 -162 -165
-48 -24 -68 -28 -141 -28 -73 0 -93 4 -141 28 -66 32 -132 99 -162 165 -33 72
-31 198 4 272 40 85 117 151 209 181 14 5 61 7 105 5 62 -2 91 -8 130 -28z"/>
<path d="M1616 2504 c-162 -30 -343 -104 -491 -202 -93 -61 -248 -212 -318
-310 -150 -209 -236 -465 -239 -718 -1 -88 2 -108 24 -155 32 -69 88 -125 158
-158 l55 -26 1150 0 c886 0 1156 3 1178 12 23 11 27 18 27 53 0 38 -2 41 -52
66 -29 15 -68 37 -88 50 l-37 25 -54 -26 c-79 -36 -157 -35 -238 6 -33 17 -72
45 -85 62 -33 44 -163 268 -188 325 -27 61 -27 153 0 214 21 48 90 123 123
133 17 6 19 17 19 114 0 106 0 108 -26 122 -46 24 -110 105 -125 156 -17 60
-15 137 6 186 18 43 23 39 -80 64 -100 23 -605 28 -719 7z"/>
</g>
</svg>
