
<svg version="1.0" xmlns="http://www.w3.org/2000/svg"
 width="25px" height="25px" viewBox="0 0 512.000000 512.000000"
 preserveAspectRatio="xMidYMid meet">

<g transform="translate(0.000000,512.000000) scale(0.100000,-0.100000)"
fill="#CCCCCC" stroke="none">
<path d="M3270 4185 c-685 -185 -1549 -417 -1920 -516 -371 -99 -683 -188
-692 -196 -22 -20 -23 -71 -2 -101 10 -15 25 -22 49 -22 19 0 227 52 463 115
236 63 434 115 439 115 6 0 16 -28 23 -61 17 -77 45 -112 89 -111 68 2 84 46
56 152 -8 30 -11 58 -7 61 4 4 59 21 122 38 63 16 679 181 1369 366 689 185
1254 335 1256 333 4 -6 135 -505 135 -515 0 -5 -10 -14 -22 -20 -54 -24 -128
-106 -164 -179 -80 -160 -50 -341 78 -471 66 -67 162 -112 256 -120 l69 -6 11
-43 c7 -25 12 -49 12 -54 0 -6 -162 -10 -452 -10 l-453 0 -109 408 c-59 224
-115 422 -123 439 -19 41 -70 73 -116 73 -52 0 -846 -215 -876 -238 -39 -28
-63 -80 -57 -123 5 -28 119 -466 142 -541 4 -15 -15 -17 -226 -20 -230 -3
-232 -3 -251 -27 -25 -30 -24 -76 1 -101 20 -20 33 -20 1310 -20 l1290 0 -2
-296 -3 -297 -40 -12 c-109 -32 -216 -120 -265 -216 -127 -248 -1 -539 268
-619 l42 -13 0 -102 c0 -88 3 -104 20 -123 28 -30 82 -30 110 0 20 22 21 32
18 166 l-3 144 -31 27 c-20 18 -51 32 -91 40 -313 61 -306 497 9 561 59 12
104 45 114 84 2 12 4 182 2 378 l-3 357 -32 33 c-24 26 -37 55 -58 133 -41
152 -57 168 -164 166 -158 -3 -275 93 -288 238 -11 114 43 209 148 261 61 31
89 67 89 113 0 14 -38 166 -84 337 -93 345 -99 358 -172 365 -29 3 -369 -84
-1284 -330z m393 -618 c20 -78 37 -146 37 -152 0 -9 -268 -86 -297 -85 -7 0
-17 19 -24 43 -6 23 -24 89 -39 147 -16 58 -28 106 -27 106 3 3 291 82 302 83
6 0 27 -63 48 -142z m-460 -116 c21 -77 39 -146 42 -153 4 -10 -32 -24 -142
-52 -82 -22 -152 -41 -158 -43 -9 -3 -85 262 -85 293 0 8 218 75 301 93 3 0
22 -62 42 -138z m581 -338 c21 -82 41 -154 43 -160 4 -10 -56 -13 -281 -13
l-286 0 -6 25 c-8 31 -40 55 -73 55 -29 0 -71 -36 -71 -62 0 -15 -8 -18 -53
-18 l-54 0 -12 56 c-7 30 -11 57 -9 59 4 4 739 203 753 204 6 1 28 -65 49
-146z"/>
<path d="M3583 3128 c-30 -15 -46 -58 -34 -91 12 -30 39 -47 75 -47 63 0 90
89 40 129 -29 23 -48 25 -81 9z"/>
<path d="M197 3361 c-211 -58 -218 -70 -162 -286 l38 -143 -34 -30 -34 -30 -3
-359 c-2 -197 0 -367 2 -379 10 -39 55 -72 114 -84 315 -64 322 -500 9 -561
-40 -8 -71 -22 -91 -40 l-31 -27 -3 -366 c-2 -315 -1 -370 13 -396 34 -65
-174 -60 2545 -60 2189 0 2474 2 2500 15 44 23 60 63 60 148 0 88 -19 117 -75
117 -48 0 -75 -31 -75 -87 l0 -43 -1525 0 -1525 0 0 81 c0 76 -2 82 -29 110
-35 34 -59 36 -95 8 -25 -19 -26 -25 -26 -110 l0 -89 -810 0 -810 0 0 293 0
294 42 13 c192 57 317 223 318 420 0 108 -41 210 -118 293 -57 61 -102 90
-179 116 l-58 20 -3 295 -2 296 807 -2 808 -3 5 -93 c4 -78 8 -96 24 -108 28
-20 69 -17 97 5 21 17 24 29 27 110 l4 91 93 0 c89 0 95 1 114 26 27 35 26 57
-3 91 l-24 28 -212 3 c-202 3 -211 4 -205 22 9 28 -21 79 -51 86 -17 4 -92
-12 -217 -47 l-192 -54 -185 -3 c-101 -2 -182 -1 -180 1 3 3 127 37 275 77
149 39 278 79 288 87 23 22 23 85 -1 106 -10 10 -32 17 -49 17 -34 0 -651
-163 -684 -180 -27 -15 -41 -54 -29 -85 l10 -25 -222 2 -223 3 -33 124 c-18
68 -32 124 -30 125 2 1 57 17 123 35 66 18 128 39 137 48 24 22 24 85 0 106
-27 24 -70 20 -225 -22z"/>
<path d="M1761 3298 c-29 -10 -50 -36 -51 -60 0 -10 14 -68 30 -130 33 -121
51 -148 99 -148 33 0 71 37 71 70 0 26 -48 216 -61 241 -12 24 -59 38 -88 27z"/>
<path d="M2940 2491 c-19 -10 -44 -34 -55 -52 -19 -33 -20 -52 -20 -509 0
-443 1 -478 18 -504 l18 -27 -82 -127 c-94 -143 -102 -174 -56 -220 l27 -27
160 0 159 0 33 33 34 32 271 0 271 0 16 -25 c22 -33 73 -45 201 -45 125 0 178
11 200 43 30 42 19 76 -66 207 l-81 124 16 33 c14 29 16 95 16 506 0 453 -1
473 -20 505 -11 18 -34 41 -52 52 -32 19 -52 20 -503 20 -440 0 -473 -1 -505
-19z m430 -301 l0 -170 -180 0 -180 0 0 170 0 170 180 0 180 0 0 -170z m500 0
l0 -170 -175 0 -175 0 0 170 0 170 175 0 175 0 0 -170z m0 -505 l0 -185 -430
0 -430 0 0 178 c0 98 3 182 7 185 3 4 197 7 430 7 l423 0 0 -185z m-770 -425
l-61 -90 -49 0 c-28 0 -50 3 -50 6 0 4 24 44 53 90 l52 84 58 0 58 0 -61 -90z
m486 33 l34 -53 -176 0 -176 0 19 33 c51 85 36 78 157 75 l108 -3 34 -52z
m307 -28 c32 -47 57 -87 57 -90 0 -3 -24 -5 -53 -5 l-54 0 -49 77 c-27 42 -53
83 -57 90 -6 10 4 13 46 13 l54 0 56 -85z"/>
<path d="M3150 1740 c-45 -45 -11 -120 54 -120 37 0 76 36 76 70 0 10 -9 29
-21 44 -26 33 -79 36 -109 6z"/>
<path d="M3630 1740 c-45 -45 -11 -120 54 -120 37 0 76 36 76 70 0 10 -9 29
-21 44 -26 33 -79 36 -109 6z"/>
<path d="M659 2479 c-25 -9 -49 -45 -49 -73 0 -7 9 -25 21 -40 l20 -26 389 0
389 0 20 26 c27 35 26 57 -3 91 l-24 28 -369 2 c-219 1 -379 -2 -394 -8z"/>
<path d="M1790 2420 c-18 -18 -20 -33 -20 -160 0 -127 2 -142 20 -160 27 -27
81 -26 106 1 17 19 19 37 19 159 0 122 -2 140 -19 159 -25 27 -79 28 -106 1z"/>
<path d="M635 2205 c-14 -13 -25 -36 -25 -50 0 -14 11 -37 25 -50 24 -24 28
-25 184 -25 l160 0 20 26 c28 35 26 69 -4 99 -24 24 -28 25 -180 25 -152 0
-156 -1 -180 -25z"/>
<path d="M1145 2205 c-14 -13 -25 -36 -25 -50 0 -14 11 -37 25 -50 l24 -25
221 0 c137 0 229 4 241 11 48 25 44 105 -7 128 -16 7 -101 11 -240 11 -215 0
-215 0 -239 -25z"/>
<path d="M635 1945 c-14 -13 -25 -36 -25 -50 0 -14 11 -37 25 -50 l24 -25 431
0 431 0 24 25 c32 31 32 69 0 100 l-24 25 -431 0 -431 0 -24 -25z"/>
<path d="M1790 1930 c-18 -18 -20 -33 -20 -163 0 -132 2 -145 20 -162 28 -25
76 -23 103 4 21 20 22 31 22 162 0 136 -1 141 -24 160 -30 25 -76 24 -101 -1z"/>
<path d="M631 1684 c-24 -31 -26 -43 -9 -79 19 -43 55 -46 441 -43 l359 3 24
28 c29 34 30 56 3 91 l-20 26 -389 0 -389 0 -20 -26z"/>
<path d="M655 1449 c-49 -28 -58 -70 -24 -113 l20 -26 163 0 c157 0 163 1 184
23 27 29 28 67 3 98 -18 23 -25 24 -173 27 -100 1 -160 -2 -173 -9z"/>
<path d="M1165 1448 c-49 -26 -58 -69 -24 -112 l20 -26 229 0 c206 0 230 2
251 18 33 27 30 78 -5 109 -27 23 -31 23 -239 23 -134 0 -219 -5 -232 -12z"/>
<path d="M1796 1439 c-26 -20 -26 -21 -26 -164 0 -143 0 -144 26 -164 36 -28
60 -26 95 8 29 29 29 30 29 151 0 87 -4 129 -15 149 -23 46 -66 54 -109 20z"/>
<path d="M635 1175 c-14 -13 -25 -36 -25 -50 0 -14 11 -37 25 -50 l24 -25 431
0 431 0 24 25 c32 31 32 69 0 100 l-24 25 -431 0 -431 0 -24 -25z"/>
</g>
</svg>
