
<svg version="1.0" xmlns="http://www.w3.org/2000/svg"
 width="25px" height="25px" viewBox="0 0 512.000000 512.000000"
 preserveAspectRatio="xMidYMid meet">

<g transform="translate(0.000000,512.000000) scale(0.100000,-0.100000)"
fill="#CCCCCC" stroke="none">
<path d="M1624 4661 c-21 -16 -95 -86 -164 -155 l-125 -126 -212 0 -213 0 -32
-29 -33 -29 -3 -136 -4 -136 -375 0 c-335 0 -378 -2 -404 -17 -58 -34 -59 -43
-59 -475 0 -375 1 -395 20 -426 20 -33 53 -52 126 -71 54 -14 127 -80 149
-133 55 -136 -22 -292 -161 -327 -70 -18 -100 -36 -118 -75 -14 -30 -16 -84
-16 -426 0 -432 0 -432 63 -470 31 -19 54 -20 520 -20 542 0 505 5 467 -69
-26 -51 -94 -109 -145 -122 -70 -18 -109 -42 -127 -79 -16 -32 -18 -74 -18
-423 0 -421 0 -422 56 -466 l27 -21 2094 0 c1957 0 2097 1 2124 17 58 34 59
43 59 473 0 412 -1 421 -46 461 -11 10 -47 25 -81 34 -115 32 -187 123 -186
234 1 115 66 196 184 232 71 21 104 46 120 86 5 13 9 195 9 414 0 431 0 431
-63 469 -31 19 -54 20 -519 20 -543 0 -506 -5 -468 69 26 51 94 109 145 122
70 18 109 42 127 79 16 32 18 74 18 423 0 421 0 422 -56 466 -26 20 -37 21
-364 21 -314 0 -338 -1 -353 -18 -24 -27 -22 -85 4 -108 20 -18 42 -19 320
-22 l299 -3 0 -340 c0 -315 -1 -340 -17 -345 -70 -24 -145 -68 -186 -109 -187
-191 -135 -500 106 -620 38 -19 76 -35 83 -35 11 0 14 -21 14 -95 0 -82 3 -98
20 -115 30 -30 83 -27 109 6 18 23 21 41 21 136 0 147 -21 186 -119 213 -68
20 -121 53 -151 94 l-21 31 450 0 451 0 0 -345 c0 -285 -2 -345 -14 -345 -7 0
-45 -16 -84 -35 -242 -121 -290 -444 -93 -628 50 -47 139 -97 174 -97 16 0 17
-23 17 -345 l0 -345 -710 0 -710 0 0 515 0 515 358 0 c340 0 359 1 390 20 50
31 62 71 62 208 0 106 -2 122 -21 146 -26 33 -79 36 -109 6 -17 -17 -20 -33
-20 -125 l0 -105 -2030 0 -2030 0 0 345 c0 285 2 345 14 345 7 0 45 16 84 35
242 121 290 444 93 628 -50 47 -139 97 -173 97 -17 0 -18 23 -18 345 l0 345
345 0 c190 0 345 -3 345 -7 0 -4 -65 -73 -144 -153 -80 -80 -150 -159 -156
-175 -24 -63 -8 -89 150 -250 l149 -150 3 -217 c4 -296 -4 -288 305 -288 l197
0 150 -148 c158 -156 178 -169 240 -151 20 6 83 61 176 153 l145 145 215 3
c302 4 290 -8 290 295 l0 208 141 140 c145 145 169 176 169 220 0 44 -24 75
-169 220 -78 77 -141 143 -141 147 0 4 171 9 379 10 356 3 380 4 400 22 27 25
29 86 3 109 -16 15 -62 17 -398 19 l-379 3 -5 133 -5 134 -33 29 -32 29 -212
0 -212 0 -157 155 c-155 154 -157 155 -201 155 -34 0 -55 -7 -84 -29z m396
-421 c19 -6 115 -10 212 -10 l177 0 3 -205 3 -205 143 -143 c78 -78 142 -147
142 -152 0 -5 -64 -74 -142 -152 l-143 -143 -3 -210 -3 -210 -206 0 -206 0
-147 -145 -146 -145 -114 116 c-63 64 -133 129 -154 145 l-39 29 -204 0 -203
0 0 203 c0 171 -3 206 -16 227 -9 14 -75 84 -145 155 l-129 130 131 130 c72
72 137 142 145 157 11 21 14 72 14 223 l0 195 173 0 c256 0 228 -11 397 156
l145 143 140 -139 c99 -99 150 -143 175 -150z m1380 -3145 l0 -515 -1245 0
-1245 0 0 340 c0 315 1 341 18 347 9 3 43 17 75 31 105 46 217 194 217 287 l0
25 1090 0 1090 0 0 -515z"/>
<path d="M1305 4062 c-169 -80 -175 -312 -10 -395 111 -55 236 -13 291 99 50
103 19 217 -77 281 -54 36 -145 42 -204 15z m135 -152 c41 -41 7 -120 -52
-120 -24 0 -68 44 -68 68 0 59 79 93 120 52z"/>
<path d="M1883 4058 c-32 -36 -486 -989 -486 -1022 -1 -52 72 -86 116 -53 19
13 485 976 494 1019 4 20 -1 33 -20 52 -33 33 -76 34 -104 4z"/>
<path d="M1965 3401 c-105 -26 -175 -115 -175 -222 0 -54 48 -139 98 -174 40
-27 51 -30 122 -30 71 0 82 3 122 30 50 35 98 120 98 173 0 141 -136 255 -265
223z m98 -173 c37 -44 6 -108 -53 -108 -35 0 -70 31 -70 61 0 69 77 99 123 47z"/>
<path d="M1422 1335 c-57 -25 -64 -58 -60 -292 l3 -205 33 -29 32 -29 864 0
c856 0 864 0 889 21 42 32 49 76 45 284 -4 269 -1 265 -268 265 -154 0 -169
-2 -194 -21 -30 -23 -35 -72 -12 -105 13 -17 31 -20 168 -24 l153 -5 3 -132 3
-133 -786 0 -785 0 0 135 0 135 490 0 c477 0 491 1 510 20 30 30 27 83 -6 109
-26 21 -36 21 -538 21 -420 -1 -517 -3 -544 -15z"/>
<path d="M3226 3729 c-33 -26 -36 -79 -6 -109 19 -19 33 -20 283 -20 300 0
307 2 307 70 0 30 -6 43 -26 59 -25 20 -39 21 -279 21 -240 0 -254 -1 -279
-21z"/>
<path d="M3226 3489 c-33 -26 -36 -79 -6 -109 19 -19 33 -20 283 -20 300 0
307 2 307 70 0 30 -6 43 -26 59 -25 20 -39 21 -279 21 -240 0 -254 -1 -279
-21z"/>
<path d="M3226 3249 c-33 -26 -36 -79 -6 -109 19 -19 33 -20 283 -20 300 0
307 2 307 70 0 30 -6 43 -26 59 -25 20 -39 21 -279 21 -240 0 -254 -1 -279
-21z"/>
<path d="M3226 3009 c-33 -26 -36 -79 -6 -109 19 -19 33 -20 283 -20 300 0
307 2 307 70 0 30 -6 43 -26 59 -25 20 -39 21 -279 21 -240 0 -254 -1 -279
-21z"/>
<path d="M3226 2769 c-33 -26 -36 -79 -6 -109 19 -19 33 -20 283 -20 300 0
307 2 307 70 0 30 -6 43 -26 59 -25 20 -39 21 -279 21 -240 0 -254 -1 -279
-21z"/>
<path d="M3226 2529 c-33 -26 -36 -79 -6 -109 19 -19 33 -20 283 -20 300 0
307 2 307 70 0 30 -6 43 -26 59 -25 20 -39 21 -279 21 -240 0 -254 -1 -279
-21z"/>
<path d="M3226 2289 c-33 -26 -36 -79 -6 -109 19 -19 33 -20 283 -20 300 0
307 2 307 70 0 30 -6 43 -26 59 -25 20 -39 21 -279 21 -240 0 -254 -1 -279
-21z"/>
<path d="M621 2174 c-12 -15 -21 -33 -21 -40 0 -27 24 -63 49 -74 18 -7 242
-10 738 -8 683 3 712 4 732 22 27 25 28 79 1 106 -20 20 -33 20 -749 20 l-730
0 -20 -26z"/>
<path d="M2271 2182 c-30 -23 -31 -76 -3 -104 45 -46 122 -15 122 49 0 63 -70
96 -119 55z"/>
<path d="M2472 2184 c-29 -20 -31 -83 -2 -109 48 -44 120 -10 120 56 0 43 -27
69 -70 69 -14 0 -36 -7 -48 -16z"/>
<path d="M3226 2049 c-33 -26 -36 -79 -6 -109 19 -19 33 -20 283 -20 300 0
307 2 307 70 0 30 -6 43 -26 59 -25 20 -39 21 -279 21 -240 0 -254 -1 -279
-21z"/>
<path d="M3764 1340 c-12 -4 -31 -21 -43 -36 -20 -25 -21 -37 -21 -246 l0
-220 29 -29 29 -29 366 0 c252 0 373 4 390 11 49 22 56 59 56 274 0 156 -3
202 -15 225 -30 59 -40 60 -422 59 -191 0 -358 -4 -369 -9z m656 -275 l0 -135
-285 0 -285 0 0 135 0 135 285 0 285 0 0 -135z"/>
</g>
</svg>
