<?xml version="1.0" standalone="no"?>
<!DOCTYPE svg PUBLIC "-//W3C//DTD SVG 20010904//EN"
 "http://www.w3.org/TR/2001/REC-SVG-20010904/DTD/svg10.dtd">
<svg version="1.0" xmlns="http://www.w3.org/2000/svg"
 width="25px" height="25px" viewBox="0 0 512.000000 512.000000"
 preserveAspectRatio="xMidYMid meet">

<g transform="translate(0.000000,512.000000) scale(0.100000,-0.100000)"
fill="#CCCCCC" stroke="none">
<path d="M1535 4786 c-73 -33 -95 -83 -95 -212 l0 -94 -348 0 c-280 0 -359 -3
-407 -15 -172 -45 -305 -179 -350 -352 -23 -86 -23 -3340 0 -3426 45 -173 178
-307 350 -352 52 -13 277 -15 1875 -15 1598 0 1823 2 1875 15 172 45 305 179
350 352 23 86 23 3340 0 3426 -45 173 -178 307 -350 352 -48 12 -127 15 -406
15 l-347 0 -4 109 c-3 118 -12 141 -72 185 -39 29 -133 29 -172 0 -60 -44 -69
-67 -72 -185 l-4 -109 -798 0 -798 0 -4 109 c-3 118 -12 141 -70 184 -34 25
-113 32 -153 13z m2871 -652 c15 -11 37 -33 48 -48 20 -26 21 -43 24 -297 l3
-269 -1921 0 -1920 0 0 254 c0 264 4 292 43 335 49 53 -55 50 1889 48 l1807
-2 27 -21z m72 -2163 c-3 -1224 -3 -1230 -24 -1257 -11 -15 -33 -37 -48 -48
l-27 -21 -1819 0 -1819 0 -27 21 c-15 11 -37 33 -48 48 -21 27 -21 33 -24
1257 l-2 1229 1920 0 1920 0 -2 -1229z"/>
<path d="M3295 2708 c-11 -6 -251 -209 -533 -451 l-514 -440 -201 200 c-152
151 -212 204 -240 213 -111 35 -219 -61 -202 -179 6 -44 17 -56 278 -318 190
-191 282 -276 305 -284 49 -16 107 -5 150 27 119 91 1155 990 1167 1014 38 74
8 173 -65 211 -39 21 -114 25 -145 7z"/>
</g>
</svg>
