
<svg version="1.0" xmlns="http://www.w3.org/2000/svg"
 width="25px" height="25px" viewBox="0 0 512.000000 512.000000"
 preserveAspectRatio="xMidYMid meet">

<g transform="translate(0.000000,512.000000) scale(0.100000,-0.100000)"
fill="#CCCCCC" stroke="none">
<path d="M265 4951 c-48 -22 -79 -54 -100 -103 -12 -30 -15 -82 -15 -268 l0
-230 2145 0 2146 0 -3 248 c-3 244 -3 249 -27 284 -13 19 -40 46 -59 59 l-36
24 -2005 2 c-1934 3 -2007 2 -2046 -16z m464 -237 c76 -64 29 -184 -72 -184
-51 0 -107 52 -107 100 0 96 106 146 179 84z m410 10 c81 -57 42 -194 -55
-194 -90 0 -140 81 -99 160 8 16 23 34 32 39 28 16 96 13 122 -5z m432 -13
c24 -24 29 -38 29 -76 0 -40 -5 -52 -31 -76 -70 -66 -178 -18 -179 79 0 63 40
102 105 102 38 0 52 -5 76 -29z"/>
<path d="M150 2943 c0 -1179 1 -1240 19 -1278 22 -50 69 -91 119 -105 24 -6
340 -10 908 -10 l871 0 5 97 c7 149 27 175 175 232 76 30 83 35 94 69 6 20 27
72 47 115 l35 78 -31 72 c-76 173 -75 177 121 375 84 85 166 161 182 169 48
26 102 20 197 -22 l87 -38 78 35 c43 20 95 41 115 47 34 11 39 18 69 94 64
166 72 171 326 175 302 6 335 -8 395 -169 30 -83 35 -90 68 -100 19 -6 72 -27
118 -46 l83 -35 77 35 c42 19 89 37 105 41 l27 6 0 700 0 700 -2145 0 -2145 0
0 -1237z m1830 993 c0 -58 3 -67 26 -85 35 -27 66 -26 100 2 23 20 28 34 32
85 l4 62 307 0 c225 0 310 -3 319 -12 8 -8 12 -54 12 -139 l0 -127 -44 -10
c-282 -60 -287 -448 -8 -514 l52 -13 0 -125 c0 -85 -4 -130 -12 -138 -9 -9
-94 -12 -319 -12 l-307 0 -4 66 c-4 58 -8 70 -32 90 -33 29 -65 30 -100 3 -24
-19 -26 -27 -26 -90 l0 -69 -690 0 c-671 0 -690 1 -700 19 -5 11 -10 73 -10
139 l0 119 41 7 c89 14 183 93 207 174 47 157 -40 309 -196 343 l-52 11 0 119
c0 66 5 129 10 140 10 18 29 19 700 19 l690 0 0 -64z m15 -1471 c33 -32 33
-78 0 -110 l-24 -25 -611 0 -611 0 -24 25 c-16 15 -25 36 -25 55 0 19 9 40 25
55 l24 25 611 0 611 0 24 -25z m179 -316 c37 -29 37 -89 0 -118 -26 -21 -34
-21 -726 -21 l-699 0 -24 25 c-16 15 -25 36 -25 55 0 19 9 40 25 55 l24 25
699 0 c692 0 700 0 726 -21z"/>
<path d="M2006 3789 c-26 -20 -26 -22 -26 -149 0 -127 0 -129 26 -149 35 -28
67 -26 101 3 28 24 28 25 28 146 0 121 0 122 -28 146 -34 29 -66 31 -101 3z"/>
<path d="M1552 3556 c-92 -91 -172 -166 -177 -166 -5 0 -49 39 -97 87 -73 73
-92 86 -119 86 -23 0 -39 -8 -56 -27 -44 -51 -35 -68 110 -213 109 -110 138
-133 162 -133 24 0 62 33 237 207 183 183 208 211 208 239 0 41 -26 72 -68 80
-32 6 -39 1 -200 -160z"/>
<path d="M2006 3429 c-26 -20 -26 -22 -26 -149 0 -127 0 -129 26 -149 35 -28
67 -26 101 3 28 24 28 25 28 146 0 121 0 122 -28 146 -34 29 -66 31 -101 3z"/>
<path d="M3375 2774 c-22 -58 -44 -109 -50 -113 -5 -4 -44 -17 -85 -30 -41
-13 -115 -44 -164 -68 l-89 -44 -109 47 -110 47 -130 -131 -131 -130 47 -109
48 -109 -45 -90 c-24 -49 -55 -123 -68 -164 -13 -41 -26 -80 -30 -85 -4 -6
-55 -28 -113 -50 l-106 -40 0 -187 0 -187 110 -42 109 -43 21 -70 c12 -39 44
-117 72 -174 l50 -103 -46 -103 c-25 -57 -46 -107 -46 -112 0 -5 57 -67 128
-137 l127 -127 110 48 110 49 100 -49 c55 -27 133 -58 172 -70 l72 -21 44
-111 43 -111 186 -3 185 -2 44 114 43 113 80 23 c43 13 121 44 172 70 l93 47
108 -48 108 -48 132 131 c112 112 130 134 123 152 -4 12 -26 60 -48 109 l-39
87 47 94 c26 51 57 129 70 172 l23 80 113 43 114 44 -2 185 -3 186 -111 43
-111 44 -17 63 c-10 35 -41 113 -70 173 l-53 109 49 109 48 109 -127 128 c-70
70 -132 128 -137 128 -5 0 -55 -21 -112 -46 l-102 -46 -92 46 c-51 25 -129 57
-175 71 l-83 26 -40 107 -40 107 -188 3 -189 2 -40 -106z m405 -531 c344 -81
588 -410 567 -763 -7 -118 -27 -192 -77 -295 -193 -390 -670 -530 -1053 -307
-32 18 -87 61 -124 95 -135 127 -214 284 -232 465 -53 515 414 924 919 805z"/>
<path d="M3701 1993 c-25 -22 -301 -818 -301 -870 0 -41 30 -73 69 -73 40 0
60 9 72 31 22 42 289 834 289 859 0 58 -82 91 -129 53z"/>
<path d="M3113 1697 c-127 -128 -143 -147 -143 -177 0 -30 16 -50 141 -176 78
-78 151 -144 164 -146 51 -10 94 26 95 80 0 29 -14 47 -102 138 l-101 104 101
104 c86 87 102 108 102 135 0 43 -38 81 -81 81 -28 0 -51 -18 -176 -143z"/>
<path d="M3862 1820 c-30 -28 -37 -62 -19 -96 9 -16 56 -69 106 -119 l91 -89
-105 -107 c-113 -114 -122 -134 -85 -181 24 -31 59 -39 97 -23 15 7 85 71 156
142 174 177 174 162 -16 351 -155 154 -178 166 -225 122z"/>
</g>
</svg>
