<?xml version="1.0" encoding="UTF-8"?>
<svg version="1.1" xmlns="http://www.w3.org/2000/svg" width="120" height="120">
<path d="M0 0 C1.35307565 -0.00543217 2.70614538 -0.01256093 4.0592041 -0.02124023 C7.70607829 -0.03934861 11.35249568 -0.03245798 14.99937701 -0.01972389 C18.8339113 -0.0095288 22.66840897 -0.0190077 26.50294495 -0.02526855 C32.94099884 -0.03252704 39.37886865 -0.0230057 45.81689453 -0.00390625 C53.2356008 0.01784989 60.65386705 0.01081323 68.07256263 -0.01121187 C74.46697649 -0.02942853 80.86125871 -0.03189348 87.25569016 -0.0214572 C91.06384325 -0.01525531 94.87179029 -0.01429437 98.67992973 -0.02760315 C102.26299 -0.03925258 105.84548932 -0.03097276 109.42848969 -0.00802612 C111.35261284 -0.00030912 113.27678405 -0.01201757 115.20088196 -0.02453613 C127.15059738 0.09064086 136.55685423 3.1906276 145.27954102 11.51757812 C155.08080007 21.78463959 156.88372498 32.62052684 156.79711914 46.42138672 C156.8025516 47.88958934 156.80968051 49.35778649 156.81835938 50.82597351 C156.83646569 54.78281852 156.82957746 58.73924245 156.81684303 62.69609404 C156.80664516 66.85800446 156.81612776 71.01988122 156.8223877 75.18179321 C156.82964611 82.17041425 156.82012575 89.15886571 156.80102539 96.14746094 C156.77927713 104.19722592 156.78630031 112.24658524 156.80833101 120.29634035 C156.82655718 127.23687028 156.82900777 134.17727898 156.81857634 141.11782515 C156.81237865 145.25019122 156.81140161 149.38236747 156.82472229 153.51472092 C156.83638534 157.4039335 156.82806741 161.29262993 156.80514526 165.18178749 C156.79991262 166.59860317 156.80127698 168.01546324 156.81019592 169.43226051 C156.89477731 184.24879965 154.03135455 195.49743068 143.62329102 206.22460938 C140.39160561 209.2352597 137.01467345 211.25374608 133.04907227 213.18945312 C132.15422119 213.62870117 131.25937012 214.06794922 130.33740234 214.52050781 C129.31876099 215.01405762 129.31876099 215.01405762 128.27954102 215.51757812 C128.98151611 216.17765869 129.68349121 216.83773926 130.40673828 217.51782227 C133.01176921 219.97779137 135.59001409 222.46436406 138.16113281 224.9597168 C139.27642871 226.03483937 140.39880694 227.10266586 141.52832031 228.1628418 C143.15350415 229.69070066 144.75117905 231.24322942 146.34594727 232.80273438 C146.85420547 233.2697023 147.36246368 233.73667023 147.88612366 234.2177887 C149.28173828 235.61157227 149.28173828 235.61157227 151.27954102 238.51757812 C151.21289062 242.31225586 151.21289062 242.31225586 150.27954102 245.51757812 C147.33193292 246.99138217 145.54926312 246.99276949 142.27954102 246.51757812 C140.24898847 244.39413662 138.68797822 242.44480154 137.01416016 240.06713867 C127.04053004 227.184153 117.0508749 216.04257389 100.22827148 213.70361328 C87.6223195 212.3410048 74.95120734 212.76412473 62.30609131 213.23358154 C57.50440477 213.36268153 52.71255244 213.30030746 47.91010094 213.24107552 C19.78536753 212.01005626 19.78536753 212.01005626 -4.41014099 223.91789246 C-7.58963111 227.43373339 -10.34723225 231.06808895 -12.94430542 235.03036499 C-15.66867134 238.84539474 -19.09560465 241.59605029 -22.72045898 244.51757812 C-23.71045898 245.50757813 -23.71045898 245.50757813 -24.72045898 246.51757812 C-28.28295898 246.26757812 -28.28295898 246.26757812 -31.72045898 245.51757812 C-33.15757341 242.64334928 -33.06727506 240.70643376 -32.72045898 237.51757812 C-30.80859375 234.94042969 -30.80859375 234.94042969 -28.16186523 232.40820312 C-27.21891602 231.48910156 -26.2759668 230.57 -25.30444336 229.62304688 C-24.29784244 228.67063118 -23.29067423 227.71881471 -22.28295898 226.76757812 C-20.32141287 224.88158552 -18.36712107 222.98823062 -16.41186523 221.09570312 C-15.53731689 220.26458008 -14.66276855 219.43345703 -13.76171875 218.57714844 C-11.67424999 216.68515073 -11.67424999 216.68515073 -10.72045898 214.51757812 C-11.66920898 214.47632813 -12.61795898 214.43507813 -13.59545898 214.39257812 C-22.11842343 213.11843799 -28.70693158 207.22110809 -34.03295898 200.81054688 C-41.54581259 190.60210921 -42.01906815 180.13140322 -41.99511719 167.81494141 C-41.99947019 166.33246607 -42.0046553 164.84999298 -42.01060486 163.36752319 C-42.02394318 159.3591633 -42.02457929 155.35089799 -42.02204156 151.34252024 C-42.02096828 147.98786063 -42.02586435 144.63321988 -42.03064698 141.27856433 C-42.04172441 133.35968596 -42.04218959 125.44085502 -42.03613281 117.52197266 C-42.03009462 109.37173912 -42.04240414 101.22167828 -42.06370288 93.07147419 C-42.08135654 86.05634152 -42.0873143 79.04126363 -42.08406514 72.02610958 C-42.08225805 67.84407086 -42.08483077 63.66215534 -42.09877968 59.48013687 C-42.11141479 55.54510977 -42.10936065 51.6103506 -42.09636879 47.6753273 C-42.09401573 46.23789375 -42.09669173 44.800441 -42.10499191 43.36302948 C-42.17480422 30.32469868 -40.38095329 20.56931649 -31.72045898 10.51757812 C-22.59663707 1.69662167 -12.28949742 -0.07982804 0 0 Z M-23.72045898 20.51757812 C-28.4309495 26.94797525 -29.83496776 31.52614023 -29.89746094 39.5300293 C-29.90403214 40.22816742 -29.91060333 40.92630554 -29.91737366 41.64559937 C-29.93704396 43.9505831 -29.94875669 46.2555018 -29.95874023 48.56054688 C-29.96281576 49.35102228 -29.96689129 50.14149769 -29.97109032 50.9559269 C-29.99192677 55.14192058 -30.00623759 59.32788174 -30.015625 63.51391602 C-30.02666999 67.82004158 -30.06105435 72.12564766 -30.1007967 76.43159008 C-30.12704549 79.75778612 -30.13532423 83.08386004 -30.13890648 86.41015053 C-30.14375301 87.99645804 -30.15531139 89.58276081 -30.17394447 91.16896629 C-30.30512067 103.07824693 -29.00081448 111.76490904 -20.65795898 120.79101562 C-15.48380821 125.40185159 -9.31417423 127.63390923 -2.44699097 127.66474915 C-1.35361923 127.67190445 -0.2602475 127.67905975 0.86625671 127.68643188 C2.66628899 127.69046524 2.66628899 127.69046524 4.50268555 127.69458008 C5.76638474 127.70115128 7.03008392 127.70772247 8.33207703 127.7144928 C12.52548964 127.73551902 16.71890254 127.7458964 20.91235352 127.75585938 C22.35809218 127.75990799 23.80383066 127.76402495 25.24956894 127.76820946 C32.04497683 127.78726094 38.84037388 127.80148994 45.63580334 127.80982143 C53.46736123 127.81958274 61.29863563 127.84587323 69.13009369 127.88632232 C75.19054431 127.91654428 81.25091397 127.93129619 87.31143844 127.93460244 C90.92742043 127.93694675 94.54309958 127.94582523 98.1590004 127.97106361 C102.19952277 127.99880944 106.23941753 127.99449472 110.2800293 127.98754883 C112.06184349 128.00676392 112.06184349 128.00676392 113.87965393 128.02636719 C123.34900139 127.96714538 130.63995536 125.75590873 137.70922852 119.29492188 C143.36739394 112.89077941 145.39170887 106.36288241 145.44067383 97.97998047 C145.44563873 97.33221649 145.45060364 96.68445251 145.45571899 96.01705933 C145.47029214 93.87920047 145.47713646 91.74141595 145.48266602 89.60351562 C145.48549339 88.86945118 145.48832077 88.13538673 145.49123383 87.37907791 C145.50621139 83.49018241 145.51544832 79.60132383 145.51977539 75.71240234 C145.52524066 71.71809781 145.54923123 67.7241375 145.57774734 63.72994041 C145.59648904 60.63960833 145.60158553 57.54935701 145.60311127 54.45897293 C145.60611521 52.98794306 145.61406628 51.51691384 145.62729645 50.0459404 C145.73304969 37.37798599 144.80153208 28.04981028 135.76000977 18.65429688 C129.81150331 13.53015037 122.80757668 11.40649266 115.0511322 11.3704071 C113.99293274 11.3632518 112.93473328 11.3560965 111.84446716 11.34872437 C110.11064537 11.34469101 110.11064537 11.34469101 108.34179688 11.34057617 C107.12017853 11.33400497 105.89856018 11.32743378 104.6399231 11.32066345 C100.59140781 11.30093123 96.54293215 11.28926178 92.49438477 11.27929688 C91.09666996 11.27524704 89.69895534 11.27113005 88.30124092 11.26694679 C81.73008556 11.2479007 75.15894137 11.23367118 68.58776373 11.22533482 C61.02394362 11.21557886 53.46041744 11.18930019 45.8967008 11.14883393 C40.03747095 11.11857236 34.17832484 11.1038563 28.31901842 11.10055381 C24.82594368 11.0982138 21.33318309 11.08939238 17.84019279 11.06409264 C13.93438433 11.03626016 10.02895529 11.04067363 6.12304688 11.04760742 C4.9813353 11.03479736 3.83962372 11.0219873 2.66331482 11.00878906 C-7.29945843 11.07296684 -16.66081462 13.12176022 -23.72045898 20.51757812 Z M-30.72045898 126.51757812 C-30.79690762 133.88241887 -30.84922559 141.24715618 -30.88525391 148.61230469 C-30.90028333 151.11462223 -30.92071248 153.61691369 -30.94677734 156.11914062 C-30.98341777 159.72858138 -31.00024445 163.33767196 -31.01342773 166.94726562 C-31.02891159 168.05496307 -31.04439545 169.16266052 -31.06034851 170.30392456 C-31.06250932 180.41545654 -29.31581905 188.66765045 -22.75561523 196.53710938 C-16.94605478 202.1905588 -10.35774269 204.62851799 -2.37142944 204.66474915 C-1.28654236 204.67190445 -0.20165527 204.67905975 0.91610718 204.68643188 C2.10161163 204.68912079 3.28711609 204.69180969 4.50854492 204.69458008 C5.76103027 204.70115128 7.01351562 204.70772247 8.30395508 204.7144928 C12.45467367 204.73422534 16.60535362 204.74589333 20.75610352 204.75585938 C22.18851109 204.75990895 23.62091847 204.76402593 25.05332565 204.76820946 C31.78626164 204.78725429 38.51918673 204.80148505 45.25214446 204.80982143 C53.00614289 204.81958214 60.75985497 204.84587385 68.51375258 204.88632232 C74.51818849 204.91656186 80.5225427 204.93129782 86.52705324 204.93460244 C90.1078421 204.93694461 93.68832483 204.94579492 97.26903152 204.97106361 C101.27092508 204.9988485 105.2721858 204.9944894 109.27416992 204.98754883 C110.44752899 205.00035889 111.62088806 205.01316895 112.82980347 205.02636719 C121.29595376 204.9730117 128.70648534 203.44390057 135.59204102 198.26757812 C144.49082079 189.16184998 145.59058565 179.65083839 145.47485352 167.36132812 C145.47202362 166.21845337 145.46919373 165.07557861 145.46627808 163.89807129 C145.45514126 160.2711308 145.43004843 156.64444316 145.40454102 153.01757812 C145.39450283 150.54883171 145.38537845 148.08008139 145.37719727 145.61132812 C145.35522321 139.5799928 145.32181059 133.54880354 145.27954102 127.51757812 C144.53333496 128.0011377 143.78712891 128.48469727 143.01831055 128.98291016 C142.03459473 129.61567871 141.05087891 130.24844727 140.03735352 130.90039062 C139.06427246 131.5283252 138.09119141 132.15625977 137.08862305 132.80322266 C127.1958945 138.84065876 116.73228304 138.66762371 105.43261719 138.6628418 C103.7039164 138.66787971 103.7039164 138.66787971 101.94029236 138.67301941 C98.15102037 138.68247604 94.36179281 138.68446982 90.57250977 138.68554688 C88.59395106 138.68794916 86.61539235 138.69035344 84.63683397 138.69300729 C78.42129751 138.70112343 72.20577552 138.70359412 65.99023438 138.70288086 C59.60835169 138.70228065 53.22655369 138.71282772 46.84469241 138.72862452 C41.33863247 138.74176079 35.83260001 138.74706222 30.32652456 138.74642545 C27.04989012 138.74617226 23.77334733 138.74986484 20.49672508 138.7596035 C16.83596254 138.76946604 13.17541488 138.76650069 9.51464844 138.76049805 C7.91743958 138.76892731 7.91743958 138.76892731 6.28796387 138.77752686 C-2.84607536 138.73971292 -12.63216255 138.41601021 -20.65795898 133.64257812 C-21.51260742 133.15015625 -22.36725586 132.65773438 -23.24780273 132.15039062 C-25.87370387 130.41638324 -28.27549653 128.49604571 -30.72045898 126.51757812 Z " fill="#000000" transform="translate(198.720458984375,155.482421875)"/>
<path d="M0 0 C0.77867432 -0.00067474 1.55734863 -0.00134949 2.35961914 -0.00204468 C14.86717004 0.01513955 26.98357421 0.60959987 39.25 3.25 C40.03117188 3.41628906 40.81234375 3.58257812 41.6171875 3.75390625 C91.38193376 14.76741567 134.35030503 45.48762945 161.77734375 88.22265625 C188.48637399 131.06949675 197.01520155 182.72265738 185.99609375 232.015625 C176.80033821 270.69966179 176.80033821 270.69966179 165.25 282.25 C159.79545455 281.79545455 159.79545455 281.79545455 157.25 279.25 C156.65930628 274.2218998 157.97707889 271.24523718 160.375 266.875 C169.42433447 249.63663891 174.77408964 230.5390691 177.25 211.25 C177.36085938 210.44820312 177.47171875 209.64640625 177.5859375 208.8203125 C180.38235485 184.5595025 177.6214688 159.47062278 170.25 136.25 C170.00797852 135.48413574 169.76595703 134.71827148 169.51660156 133.92919922 C155.2320217 89.88967406 123.8049914 53.03480687 82.88671875 31.53125 C64.41470984 22.22624658 44.70690488 16.12097026 24.25 13.25 C23.57799561 13.15428711 22.90599121 13.05857422 22.21362305 12.95996094 C-23.83483439 7.09552199 -71.10827085 20.69912809 -107.84130859 48.734375 C-113.70636056 53.39160736 -119.06715437 58.56313211 -124.35546875 63.859375 C-125.73636221 65.23801578 -127.13223987 66.60264711 -128.56640625 67.92578125 C-159.79124564 97.19470228 -175.20752049 142.91520626 -176.67578125 184.72583008 C-177.2970333 213.17183972 -171.57681767 241.75278926 -158.75 267.25 C-158.34201863 270.17386651 -158.3598788 271.56155082 -159.8125 274.125 C-161.75 275.25 -161.75 275.25 -165.0625 275.6875 C-170.14150059 273.70755062 -170.98108558 271.27835285 -173.14453125 266.40625 C-179.19379085 251.11581378 -184.13244571 235.50094675 -186.75 219.25 C-186.86569336 218.53247559 -186.98138672 217.81495117 -187.10058594 217.07568359 C-193.36087459 176.03085341 -185.10665919 134.67120552 -165.75 98.25 C-165.14542969 97.08855469 -164.54085937 95.92710937 -163.91796875 94.73046875 C-155.75448504 79.69247244 -144.78783319 66.35423266 -132.75 54.25 C-132.2559668 53.75193848 -131.76193359 53.25387695 -131.25292969 52.74072266 C-96.57459921 18.25293245 -48.51934433 0.03777369 0 0 Z " fill="#000000" transform="translate(254.75,106.75)"/>
<path d="M0 0 C5.34119008 3.09068864 8.56135836 7.19579383 10.5234375 13.08203125 C11.30689435 19.59371363 10.34239888 24.70023336 6.5234375 30.08203125 C2.15634522 34.79609798 -2.41560789 37.11871431 -8.7890625 37.45703125 C-14.42487916 37.30699287 -18.78993783 35.44817024 -23.015625 31.7265625 C-26.74778911 27.65610282 -28.37445761 23.40944933 -28.54296875 17.91796875 C-28.20778075 12.00647136 -26.34319382 7.56610894 -22.4765625 3.08203125 C-16.21216608 -2.1382991 -7.65306958 -2.8367056 0 0 Z M-16.4765625 15.08203125 C-17.22671445 18.12511416 -17.22671445 18.12511416 -16.4765625 21.08203125 C-14.54015708 23.73562387 -13.09797627 24.84302595 -10.0390625 26.01953125 C-6.6294571 26.10269236 -5.13873979 25.16860264 -2.4765625 23.08203125 C-0.72962258 20.69984044 -0.45379977 19.53728592 -0.6015625 16.58203125 C-1.70097388 13.44085588 -2.78515515 12.04603121 -5.4765625 10.08203125 C-10.90923078 9.04173307 -13.26223146 10.73323043 -16.4765625 15.08203125 Z " fill="#000000" transform="translate(218.4765625,309.91796875)"/>
<path d="M0 0 C4.87963585 3.43792526 9.3033593 8.00627312 10.75 13.9375 C11.22508565 19.82856208 10.65006996 23.63737214 7.75 28.9375 C4.13368375 33.12481355 0.46732051 36.56446273 -5.15234375 37.3359375 C-11.84966059 37.28422077 -16.75638507 37.20327048 -21.8671875 32.42578125 C-25.99411586 28.03228096 -28.20145278 23.89756599 -28.27734375 17.70703125 C-27.85107039 11.18176975 -25.66134206 7.16335421 -20.8125 2.6875 C-14.33513844 -1.73606399 -7.47409815 -2.44345517 0 0 Z M-15.25 12.9375 C-16.69430855 15.82611709 -16.62688506 17.73397701 -16.25 20.9375 C-13.76397551 24.30094489 -12.33574477 25.73807749 -8.1875 26.5 C-4.56562954 25.80645034 -3.41074795 24.89852497 -1.25 21.9375 C-0.16975342 19.53639783 -0.16975342 19.53639783 -0.25 16.9375 C-1.87155629 13.45115399 -3.01453292 12.09447806 -6.25 9.9375 C-10.54387011 9.9375 -11.83866484 10.54034556 -15.25 12.9375 Z " fill="#000000" transform="translate(311.25,309.0625)"/>
</svg>