<?xml version="1.0" standalone="no"?>
<!DOCTYPE svg PUBLIC "-//W3C//DTD SVG 20010904//EN"
 "http://www.w3.org/TR/2001/REC-SVG-20010904/DTD/svg10.dtd">
<svg version="1.0" xmlns="http://www.w3.org/2000/svg"
 width="24" height="24" viewBox="0 0 2400.000000 2400.000000"
 preserveAspectRatio="xMidYMid meet">

<g transform="translate(0.000000,2400.000000) scale(0.100000,-0.100000)" stroke="none">
<path d="M4450 19722 l0 -2972 2972 0 2973 0 -1180 1180 c-648 648 -1177 1181
-1175 1184 17 15 364 194 519 266 974 455 1936 698 3006 761 225 13 843 7
1045 -10 874 -75 1607 -243 2370 -544 548 -215 1016 -460 1515 -792 480 -319
863 -632 1266 -1034 1312 -1313 2134 -3016 2339 -4844 33 -298 41 -422 47
-772 6 -367 -4 -636 -38 -965 -69 -683 -236 -1391 -477 -2026 l-69 -182 870
-507 c498 -290 873 -503 878 -498 17 17 217 529 288 738 388 1133 567 2259
548 3450 -6 377 -14 527 -48 865 -158 1600 -705 3152 -1587 4505 -902 1384
-2145 2545 -3582 3347 -1216 678 -2578 1103 -3950 1232 -442 42 -1034 57
-1440 37 -1352 -67 -2593 -373 -3820 -940 -309 -144 -770 -393 -1040 -564
l-105 -66 -1062 1062 -1063 1062 0 -2973z" fill="#24679b" />
<path d="M2618 15877 c-9 -23 -42 -107 -74 -187 -377 -957 -590 -1915 -676
-3040 -17 -220 -17 -1080 0 -1300 65 -856 192 -1552 416 -2292 723 -2386 2321
-4440 4466 -5743 1284 -780 2741 -1267 4230 -1414 620 -61 1283 -67 1875 -15
1567 136 3045 620 4388 1435 l181 110 1063 -1063 1063 -1063 0 2973 0 2972
-2972 0 -2973 0 1179 -1179 1179 -1179 -74 -41 c-131 -74 -569 -287 -733 -356
-888 -376 -1770 -581 -2736 -636 -230 -13 -825 -7 -1035 11 -1458 123 -2749
572 -3935 1370 -1207 813 -2212 1983 -2823 3285 -433 923 -674 1839 -759 2885
-20 240 -16 997 5 1235 69 747 222 1444 465 2112 l40 112 -866 522 c-477 287
-870 523 -873 525 -3 1 -12 -16 -21 -39z" fill="#24679b" />
</g>
</svg>
